<svg xmlns="http://www.w3.org/2000/svg" xmlns:xlink="http://www.w3.org/1999/xlink" viewBox="0 0 320.33 272.71"><defs><style>.cls-1{isolation:isolate;}.cls-2{fill:url(#linear-gradient);}.cls-3{fill:#2842a2;}.cls-16,.cls-4{fill:#fff;}.cls-5{fill:url(#linear-gradient-2);}.cls-6{fill:#f7f7f7;}.cls-7{fill:#a9b3da;}.cls-8{fill:#414042;opacity:0.3;}.cls-9{fill:url(#linear-gradient-3);}.cls-10{fill:#e6e7e8;}.cls-11{fill:#ffc107;}.cls-12{fill:url(#linear-gradient-4);}.cls-13{fill:#5368b5;}.cls-14{fill:url(#linear-gradient-5);}.cls-15{fill:url(#linear-gradient-6);}.cls-16{opacity:0;}.cls-17{fill:#f8f9fc;opacity:0.03;}.cls-18{fill:#f1f3f9;opacity:0.06;}.cls-19{fill:#eaedf6;opacity:0.1;}.cls-20{fill:#e3e7f3;opacity:0.13;}.cls-21{fill:#dce1f0;opacity:0.16;}.cls-22{fill:#d5daed;opacity:0.19;}.cls-23{fill:#ced4ea;opacity:0.23;}.cls-24{fill:#c8cee7;opacity:0.26;}.cls-25{fill:#c1c8e4;opacity:0.29;}.cls-26{fill:#bac2e1;opacity:0.32;}.cls-27{fill:#b3bcde;opacity:0.35;}.cls-28{fill:#acb6db;opacity:0.39;}.cls-29{fill:#a5b0d8;opacity:0.42;}.cls-30{fill:#9eaad5;opacity:0.45;}.cls-31{fill:#97a4d2;opacity:0.48;}.cls-32{fill:#909dcf;opacity:0.52;}.cls-33{fill:#8997cc;opacity:0.55;}.cls-34{fill:#8291c9;opacity:0.58;}.cls-35{fill:#7b8bc6;opacity:0.61;}.cls-36{fill:#7485c3;opacity:0.65;}.cls-37{fill:#6d7fc0;opacity:0.68;}.cls-38{fill:#6679bd;opacity:0.71;}.cls-39{fill:#5f73ba;opacity:0.74;}.cls-40{fill:#596db7;opacity:0.77;}.cls-41{fill:#5267b4;opacity:0.81;}.cls-42{fill:#4b60b1;opacity:0.84;}.cls-43{fill:#445aae;opacity:0.87;}.cls-44{fill:#3d54ab;opacity:0.9;}.cls-45{fill:#364ea8;opacity:0.94;}.cls-46{fill:#2f48a5;opacity:0.97;}.cls-47{fill:url(#linear-gradient-7);}.cls-48,.cls-49,.cls-56,.cls-57,.cls-58,.cls-61,.cls-62,.cls-63{mix-blend-mode:multiply;}.cls-49{fill:url(#radial-gradient);}.cls-50{fill:#d1d3d4;}.cls-51{fill:#f1f2f2;}.cls-52{fill:#ffda6a;}.cls-53{fill:#bf9105;}.cls-54{fill:#ffcd39;}.cls-55{fill:#4782d9;}.cls-56{fill:url(#radial-gradient-2);}.cls-57{fill:url(#radial-gradient-3);}.cls-58{fill:url(#radial-gradient-4);}.cls-59{fill:url(#linear-gradient-8);}.cls-60{fill:#f0f2f8;}.cls-61{fill:url(#radial-gradient-5);}.cls-62{fill:url(#radial-gradient-6);}.cls-63{fill:url(#radial-gradient-7);}</style><linearGradient id="linear-gradient" x1="322.74" y1="107.26" x2="441.07" y2="107.26" gradientUnits="userSpaceOnUse"><stop offset="0" stop-color="#2842a2"/><stop offset="0.28" stop-color="#3358b5"/><stop offset="0.74" stop-color="#4177cf"/><stop offset="1" stop-color="#4782d9"/></linearGradient><linearGradient id="linear-gradient-2" x1="244.68" y1="179.45" x2="437.83" y2="179.45" xlink:href="#linear-gradient"/><linearGradient id="linear-gradient-3" x1="372.25" y1="147.49" x2="479.09" y2="147.49" xlink:href="#linear-gradient"/><linearGradient id="linear-gradient-4" x1="280.64" y1="113.26" x2="382.37" y2="113.26" gradientUnits="userSpaceOnUse"><stop offset="0" stop-color="#2842a2"/><stop offset="0.24" stop-color="#2a46a6"/><stop offset="0.5" stop-color="#3053b0"/><stop offset="0.76" stop-color="#3a67c2"/><stop offset="1" stop-color="#4782d9"/></linearGradient><linearGradient id="linear-gradient-5" x1="324.95" y1="83.63" x2="365.75" y2="83.63" gradientUnits="userSpaceOnUse"><stop offset="0" stop-color="#2e4fad"/><stop offset="0.14" stop-color="#3258b5"/><stop offset="0.69" stop-color="#4177cf"/><stop offset="1" stop-color="#4782d9"/></linearGradient><linearGradient id="linear-gradient-6" x1="392.1" y1="193.13" x2="455.92" y2="193.13" xlink:href="#linear-gradient"/><linearGradient id="linear-gradient-7" x1="183.4" y1="193.24" x2="282.31" y2="193.24" xlink:href="#linear-gradient"/><radialGradient id="radial-gradient" cx="190.63" cy="7939.41" r="29.65" gradientTransform="translate(-161.3 -3909.64) scale(1 0.52)" gradientUnits="userSpaceOnUse"><stop offset="0" stop-color="#2842a2"/><stop offset="0.13" stop-color="#5065b3"/><stop offset="0.36" stop-color="#8d9bce"/><stop offset="0.57" stop-color="#bec6e3"/><stop offset="0.75" stop-color="#e2e5f2"/><stop offset="0.9" stop-color="#f7f8fc"/><stop offset="1" stop-color="#fff"/></radialGradient><radialGradient id="radial-gradient-2" cx="426.89" cy="7441.13" r="11.16" gradientTransform="translate(0 -3730.81) scale(1 0.54)" gradientUnits="userSpaceOnUse"><stop offset="0.2" stop-color="#2842a2"/><stop offset="0.3" stop-color="#5065b3"/><stop offset="0.49" stop-color="#8d9bce"/><stop offset="0.66" stop-color="#bec6e3"/><stop offset="0.8" stop-color="#e2e5f2"/><stop offset="0.92" stop-color="#f7f8fc"/><stop offset="1" stop-color="#fff"/></radialGradient><radialGradient id="radial-gradient-3" cx="412.44" cy="7426.8" r="11.16" xlink:href="#radial-gradient-2"/><radialGradient id="radial-gradient-4" cx="397.84" cy="7412.46" r="11.16" xlink:href="#radial-gradient-2"/><linearGradient id="linear-gradient-8" x1="123.74" y1="208.22" x2="214.77" y2="208.22" gradientUnits="userSpaceOnUse"><stop offset="0" stop-color="#4782d9"/><stop offset="0.24" stop-color="#457dd5"/><stop offset="0.5" stop-color="#3e70ca"/><stop offset="0.77" stop-color="#345ab7"/><stop offset="1" stop-color="#2842a2"/></linearGradient><radialGradient id="radial-gradient-5" cx="186.11" cy="8018.12" r="20.93" gradientTransform="translate(0 -3880.64) scale(1 0.52)" gradientUnits="userSpaceOnUse"><stop offset="0" stop-color="#2842a2"/><stop offset="0.11" stop-color="#5065b3"/><stop offset="0.29" stop-color="#8d9bce"/><stop offset="0.46" stop-color="#bec6e3"/><stop offset="0.6" stop-color="#e2e5f2"/><stop offset="0.72" stop-color="#f7f8fc"/><stop offset="0.8" stop-color="#fff"/></radialGradient><radialGradient id="radial-gradient-6" cx="424.29" cy="8043.42" r="12.54" xlink:href="#radial-gradient-5"/><radialGradient id="radial-gradient-7" cx="390.6" cy="8048.07" r="16.75" gradientTransform="translate(-161.3 -3909.64) scale(1 0.52)" gradientUnits="userSpaceOnUse"><stop offset="0" stop-color="#2842a2"/><stop offset="0.1" stop-color="#566ab6"/><stop offset="0.21" stop-color="#8292c9"/><stop offset="0.32" stop-color="#a9b3da"/><stop offset="0.44" stop-color="#c8cfe7"/><stop offset="0.56" stop-color="#e0e4f2"/><stop offset="0.69" stop-color="#f2f3f9"/><stop offset="0.83" stop-color="#fcfcfe"/><stop offset="1" stop-color="#fff"/></radialGradient></defs><g class="cls-1"><g id="Graphics"><g id="Layer_5" data-name="Layer 5"><path class="cls-2" d="M438.59,94.22,326.16,29.31a2.28,2.28,0,0,0-3.42,2V116a5,5,0,0,0,2.48,4.29l112.43,64.92a2.28,2.28,0,0,0,3.42-2V98.51A5,5,0,0,0,438.59,94.22Z" transform="translate(-161.3 -29)"/><path class="cls-3" d="M437.14,95.19,324.71,30.28a2.28,2.28,0,0,0-3.42,2V117a5,5,0,0,0,2.47,4.29L436.2,186.18a2.27,2.27,0,0,0,3.41-2V99.48A5,5,0,0,0,437.14,95.19Z" transform="translate(-161.3 -29)"/><polygon class="cls-4" points="271.65 71.54 165.85 10.11 165.85 87.62 271.65 149.05 271.65 71.54"/><path class="cls-5" d="M316.73,125.35l-72,38s-.4,5.63,1.14,6.51l110.31,63.69a9.15,9.15,0,0,0,9.11,0l70.85-40.5c2.93-1.82,1.16-6.52,1.16-6.52L325.84,125.37A9.17,9.17,0,0,0,316.73,125.35Z" transform="translate(-161.3 -29)"/><path class="cls-6" d="M316.73,121l-70.85,40.5a2.29,2.29,0,0,0,0,4l110.31,63.69a9.12,9.12,0,0,0,9.11,0l70.85-40.5a2.3,2.3,0,0,0,0-4L325.84,121A9.15,9.15,0,0,0,316.73,121Z" transform="translate(-161.3 -29)"/><path class="cls-7" d="M310.45,173.44l-18.68,10.67a.61.61,0,0,0,0,1L320.85,202a2.42,2.42,0,0,0,2.4,0l18.67-10.68a.6.6,0,0,0,0-1.05l-29.07-16.79A2.42,2.42,0,0,0,310.45,173.44Z" transform="translate(-161.3 -29)"/><path class="cls-3" d="M324.54,127.18l6.11,3.53a.37.37,0,0,1,0,.63l-3,1.74a.78.78,0,0,1-.78,0l-6.11-3.52a.37.37,0,0,1,0-.64l3-1.74A.78.78,0,0,1,324.54,127.18Z" transform="translate(-161.3 -29)"/><path class="cls-3" d="M333.49,132.51l6.1,3.53a.37.37,0,0,1,0,.63l-3,1.74a.8.8,0,0,1-.79,0l-6.1-3.53a.36.36,0,0,1,0-.63l3-1.74A.8.8,0,0,1,333.49,132.51Z" transform="translate(-161.3 -29)"/><path class="cls-3" d="M342.46,137.56l6.11,3.52a.37.37,0,0,1,0,.63l-3,1.74a.78.78,0,0,1-.78,0l-6.11-3.52a.37.37,0,0,1,0-.63l3-1.74A.78.78,0,0,1,342.46,137.56Z" transform="translate(-161.3 -29)"/><path class="cls-3" d="M351.71,142.77l6.11,3.52a.36.36,0,0,1,0,.63l-3,1.74a.78.78,0,0,1-.78,0l-6.11-3.52a.37.37,0,0,1,0-.63l3-1.75A.78.78,0,0,1,351.71,142.77Z" transform="translate(-161.3 -29)"/><path class="cls-3" d="M360.6,147.72l6.1,3.52a.37.37,0,0,1,0,.63l-3,1.74a.8.8,0,0,1-.79,0l-6.1-3.52a.36.36,0,0,1,0-.63l3-1.74A.8.8,0,0,1,360.6,147.72Z" transform="translate(-161.3 -29)"/><path class="cls-3" d="M369.23,153.05l6.11,3.52a.37.37,0,0,1,0,.63l-3,1.74a.78.78,0,0,1-.78,0l-6.11-3.52a.37.37,0,0,1,0-.63l3-1.75A.78.78,0,0,1,369.23,153.05Z" transform="translate(-161.3 -29)"/><path class="cls-3" d="M378.28,158l6.1,3.53a.37.37,0,0,1,0,.63l-3,1.74a.8.8,0,0,1-.79,0l-6.1-3.53a.36.36,0,0,1,0-.63l3-1.74A.8.8,0,0,1,378.28,158Z" transform="translate(-161.3 -29)"/><path class="cls-3" d="M387.18,163.34l6.11,3.52a.37.37,0,0,1,0,.63l-3,1.74a.8.8,0,0,1-.79,0l-6.1-3.52a.36.36,0,0,1,0-.63l3-1.74A.78.78,0,0,1,387.18,163.34Z" transform="translate(-161.3 -29)"/><path class="cls-3" d="M395.94,168.51l6.11,3.52a.37.37,0,0,1,0,.63l-3,1.74a.8.8,0,0,1-.79,0l-6.1-3.52a.36.36,0,0,1,0-.63l3-1.75A.75.75,0,0,1,395.94,168.51Z" transform="translate(-161.3 -29)"/><path class="cls-3" d="M405.18,173.83l6.1,3.52a.36.36,0,0,1,0,.63l-3,1.74a.8.8,0,0,1-.79,0l-6.1-3.52a.37.37,0,0,1,0-.63l3-1.74A.8.8,0,0,1,405.18,173.83Z" transform="translate(-161.3 -29)"/><path class="cls-3" d="M414.15,178.86l6.1,3.52a.36.36,0,0,1,0,.63l-3,1.75a.8.8,0,0,1-.79,0l-6.1-3.53a.37.37,0,0,1,0-.63l3-1.74A.8.8,0,0,1,414.15,178.86Z" transform="translate(-161.3 -29)"/><path class="cls-3" d="M312.13,133.82l4.13-2.42a1.74,1.74,0,0,1,1.74,0l4,2.33a.87.87,0,0,1,0,1.48l-4,2.46a1.75,1.75,0,0,1-1.77,0l-4.14-2.39A.86.86,0,0,1,312.13,133.82Z" transform="translate(-161.3 -29)"/><path class="cls-3" d="M321.38,139.15l4.14-2.42a1.74,1.74,0,0,1,1.74,0l4,2.34a.87.87,0,0,1,0,1.48l-4,2.46a1.75,1.75,0,0,1-1.77,0l-4.14-2.39A.87.87,0,0,1,321.38,139.15Z" transform="translate(-161.3 -29)"/><path class="cls-3" d="M330.38,144.2l4.13-2.43a1.74,1.74,0,0,1,1.74,0l4,2.33a.87.87,0,0,1,0,1.48l-4,2.47a1.73,1.73,0,0,1-1.77,0l-4.14-2.39A.85.85,0,0,1,330.38,144.2Z" transform="translate(-161.3 -29)"/><path class="cls-3" d="M339.94,149.41l4.13-2.43a1.74,1.74,0,0,1,1.74,0l4,2.33a.86.86,0,0,1,0,1.48l-4,2.47a1.73,1.73,0,0,1-1.77,0l-4.15-2.39A.85.85,0,0,1,339.94,149.41Z" transform="translate(-161.3 -29)"/><path class="cls-3" d="M348.36,154.36l4.14-2.42a1.72,1.72,0,0,1,1.74,0l4,2.33a.87.87,0,0,1,0,1.48l-4,2.47a1.73,1.73,0,0,1-1.77,0l-4.14-2.38A.87.87,0,0,1,348.36,154.36Z" transform="translate(-161.3 -29)"/><path class="cls-3" d="M356.93,159.66l4.13-2.42a1.72,1.72,0,0,1,1.74,0l4,2.33a.86.86,0,0,1,0,1.48l-4,2.47a1.71,1.71,0,0,1-1.76,0l-4.15-2.38A.86.86,0,0,1,356.93,159.66Z" transform="translate(-161.3 -29)"/><path class="cls-3" d="M366.07,164.67l4.14-2.42a1.72,1.72,0,0,1,1.74,0l4,2.33a.87.87,0,0,1,0,1.48l-4,2.46a1.75,1.75,0,0,1-1.77,0l-4.14-2.39A.86.86,0,0,1,366.07,164.67Z" transform="translate(-161.3 -29)"/><path class="cls-3" d="M375,169.75l4.13-2.42a1.72,1.72,0,0,1,1.74,0l4,2.33a.86.86,0,0,1,0,1.48l-4,2.47a1.71,1.71,0,0,1-1.76,0L375,171.24A.86.86,0,0,1,375,169.75Z" transform="translate(-161.3 -29)"/><path class="cls-3" d="M383.83,175.15l4.14-2.43a1.73,1.73,0,0,1,1.73,0l4,2.33a.86.86,0,0,1,0,1.48l-4,2.47a1.73,1.73,0,0,1-1.77,0l-4.14-2.39A.85.85,0,0,1,383.83,175.15Z" transform="translate(-161.3 -29)"/><path class="cls-3" d="M393.42,180.79l4.14-2.42a1.74,1.74,0,0,1,1.74,0l4,2.33a.86.86,0,0,1,0,1.48l-4,2.46a1.73,1.73,0,0,1-1.77,0l-4.14-2.39A.86.86,0,0,1,393.42,180.79Z" transform="translate(-161.3 -29)"/><path class="cls-3" d="M402.09,185.5l4.14-2.42a1.72,1.72,0,0,1,1.74,0l4,2.33a.87.87,0,0,1,0,1.48l-4,2.47a1.73,1.73,0,0,1-1.77,0L402.1,187A.86.86,0,0,1,402.09,185.5Z" transform="translate(-161.3 -29)"/><path class="cls-3" d="M302.91,138.83l4.14-2.42a1.74,1.74,0,0,1,1.74,0l4,2.33a.86.86,0,0,1,0,1.48l-4,2.46a1.73,1.73,0,0,1-1.77,0l-4.14-2.39A.86.86,0,0,1,302.91,138.83Z" transform="translate(-161.3 -29)"/><path class="cls-3" d="M312.17,144.16l4.14-2.42a1.72,1.72,0,0,1,1.74,0l4,2.33a.86.86,0,0,1,0,1.48l-4,2.46a1.75,1.75,0,0,1-1.77,0l-4.14-2.39A.86.86,0,0,1,312.17,144.16Z" transform="translate(-161.3 -29)"/><path class="cls-3" d="M321.16,149.21l4.14-2.42a1.72,1.72,0,0,1,1.74,0l4,2.33a.86.86,0,0,1,0,1.48l-4,2.47a1.73,1.73,0,0,1-1.77,0l-4.14-2.38A.86.86,0,0,1,321.16,149.21Z" transform="translate(-161.3 -29)"/><path class="cls-3" d="M330.72,154.42l4.14-2.42a1.72,1.72,0,0,1,1.74,0l4,2.33a.87.87,0,0,1,0,1.48l-4,2.47a1.73,1.73,0,0,1-1.77,0l-4.14-2.39A.85.85,0,0,1,330.72,154.42Z" transform="translate(-161.3 -29)"/><path class="cls-3" d="M339.15,159.37l4.14-2.42a1.72,1.72,0,0,1,1.74,0l4,2.33a.86.86,0,0,1,0,1.48l-4,2.47a1.73,1.73,0,0,1-1.77,0l-4.14-2.38A.86.86,0,0,1,339.15,159.37Z" transform="translate(-161.3 -29)"/><path class="cls-3" d="M347.71,164.67l4.14-2.42a1.72,1.72,0,0,1,1.74,0l4,2.33a.87.87,0,0,1,0,1.48l-4,2.47a1.73,1.73,0,0,1-1.77,0l-4.14-2.38A.86.86,0,0,1,347.71,164.67Z" transform="translate(-161.3 -29)"/><path class="cls-3" d="M356.86,169.68l4.14-2.42a1.7,1.7,0,0,1,1.73,0l4,2.33a.86.86,0,0,1,0,1.48l-4,2.46a1.75,1.75,0,0,1-1.77,0l-4.14-2.39A.86.86,0,0,1,356.86,169.68Z" transform="translate(-161.3 -29)"/><path class="cls-3" d="M365.81,174.76l4.14-2.42a1.72,1.72,0,0,1,1.74,0l4,2.33a.87.87,0,0,1,0,1.48l-4,2.47a1.73,1.73,0,0,1-1.77,0l-4.14-2.38A.86.86,0,0,1,365.81,174.76Z" transform="translate(-161.3 -29)"/><path class="cls-3" d="M374.62,180.16l4.13-2.42a1.72,1.72,0,0,1,1.74,0l4,2.33a.86.86,0,0,1,0,1.48l-4,2.47a1.73,1.73,0,0,1-1.77,0l-4.14-2.39A.85.85,0,0,1,374.62,180.16Z" transform="translate(-161.3 -29)"/><path class="cls-3" d="M384.21,185.81l4.13-2.43a1.74,1.74,0,0,1,1.74,0l4,2.33a.86.86,0,0,1,0,1.48l-4,2.46a1.71,1.71,0,0,1-1.77,0l-4.14-2.39A.85.85,0,0,1,384.21,185.81Z" transform="translate(-161.3 -29)"/><path class="cls-3" d="M392.88,190.51l4.13-2.42a1.72,1.72,0,0,1,1.74,0l4,2.34a.85.85,0,0,1,0,1.47l-4,2.47a1.73,1.73,0,0,1-1.77,0L392.88,192A.86.86,0,0,1,392.88,190.51Z" transform="translate(-161.3 -29)"/><path class="cls-3" d="M293.7,143.84l4.13-2.42a1.74,1.74,0,0,1,1.74,0l4,2.33a.86.86,0,0,1,0,1.48l-4,2.46a1.71,1.71,0,0,1-1.77,0l-4.14-2.39A.86.86,0,0,1,293.7,143.84Z" transform="translate(-161.3 -29)"/><path class="cls-3" d="M303,149.17l4.13-2.42a1.74,1.74,0,0,1,1.74,0l4,2.33a.86.86,0,0,1,0,1.48l-4,2.46a1.75,1.75,0,0,1-1.77,0L303,150.66A.86.86,0,0,1,303,149.17Z" transform="translate(-161.3 -29)"/><path class="cls-3" d="M312,154.22l4.13-2.42a1.72,1.72,0,0,1,1.74,0l4,2.33a.86.86,0,0,1,0,1.48l-4,2.47a1.73,1.73,0,0,1-1.77,0L312,155.71A.86.86,0,0,1,312,154.22Z" transform="translate(-161.3 -29)"/><path class="cls-3" d="M321.51,159.43l4.14-2.42a1.72,1.72,0,0,1,1.74,0l4,2.33a.86.86,0,0,1,0,1.48l-4,2.47a1.73,1.73,0,0,1-1.77,0l-4.14-2.38A.86.86,0,0,1,321.51,159.43Z" transform="translate(-161.3 -29)"/><path class="cls-3" d="M329.94,164.38l4.13-2.42a1.72,1.72,0,0,1,1.74,0l4,2.33a.86.86,0,0,1,0,1.48l-4,2.47a1.73,1.73,0,0,1-1.77,0l-4.14-2.38A.86.86,0,0,1,329.94,164.38Z" transform="translate(-161.3 -29)"/><path class="cls-3" d="M338.5,169.68l4.13-2.42a1.72,1.72,0,0,1,1.74,0l4,2.33a.86.86,0,0,1,0,1.48l-4,2.47a1.71,1.71,0,0,1-1.76,0l-4.15-2.38A.86.86,0,0,1,338.5,169.68Z" transform="translate(-161.3 -29)"/><path class="cls-3" d="M347.65,174.69l4.13-2.42a1.74,1.74,0,0,1,1.74,0l4,2.33a.86.86,0,0,1,0,1.48l-4,2.46a1.75,1.75,0,0,1-1.77,0l-4.14-2.39A.86.86,0,0,1,347.65,174.69Z" transform="translate(-161.3 -29)"/><path class="cls-3" d="M356.6,179.77l4.13-2.42a1.72,1.72,0,0,1,1.74,0l4,2.33a.86.86,0,0,1,0,1.48l-4,2.47a1.73,1.73,0,0,1-1.77,0l-4.15-2.38A.86.86,0,0,1,356.6,179.77Z" transform="translate(-161.3 -29)"/><path class="cls-3" d="M365.4,185.17l4.14-2.42a1.72,1.72,0,0,1,1.74,0l4,2.33a.87.87,0,0,1,0,1.48l-4,2.47a1.73,1.73,0,0,1-1.77,0l-4.14-2.38A.86.86,0,0,1,365.4,185.17Z" transform="translate(-161.3 -29)"/><path class="cls-3" d="M375,190.82l4.14-2.43a1.74,1.74,0,0,1,1.74,0l4,2.33a.87.87,0,0,1,0,1.48l-4,2.47a1.73,1.73,0,0,1-1.77,0L375,192.3A.85.85,0,0,1,375,190.82Z" transform="translate(-161.3 -29)"/><path class="cls-3" d="M383.66,195.52l4.14-2.42a1.72,1.72,0,0,1,1.74,0l4,2.34a.86.86,0,0,1,0,1.47l-4,2.47a1.73,1.73,0,0,1-1.77,0L383.67,197A.86.86,0,0,1,383.66,195.52Z" transform="translate(-161.3 -29)"/><path class="cls-3" d="M284.48,148.86l4.14-2.43a1.74,1.74,0,0,1,1.74,0l4,2.33a.87.87,0,0,1,0,1.48l-4,2.46a1.71,1.71,0,0,1-1.77,0l-4.14-2.39A.85.85,0,0,1,284.48,148.86Z" transform="translate(-161.3 -29)"/><path class="cls-3" d="M293.74,154.18l4.14-2.42a1.74,1.74,0,0,1,1.74,0l4,2.33a.87.87,0,0,1,0,1.48l-4,2.46a1.73,1.73,0,0,1-1.77,0l-4.14-2.39A.86.86,0,0,1,293.74,154.18Z" transform="translate(-161.3 -29)"/><path class="cls-3" d="M302.73,159.23l4.14-2.42a1.72,1.72,0,0,1,1.74,0l4,2.33a.87.87,0,0,1,0,1.48l-4,2.47a1.73,1.73,0,0,1-1.77,0l-4.14-2.38A.86.86,0,0,1,302.73,159.23Z" transform="translate(-161.3 -29)"/><path class="cls-3" d="M312.3,164.44l4.13-2.42a1.72,1.72,0,0,1,1.74,0l4,2.33a.86.86,0,0,1,0,1.48l-4,2.47a1.73,1.73,0,0,1-1.77,0l-4.14-2.38A.86.86,0,0,1,312.3,164.44Z" transform="translate(-161.3 -29)"/><path class="cls-3" d="M321.51,169.94l4.14-2.42a1.72,1.72,0,0,1,1.74,0l21,12.15a.85.85,0,0,1,0,1.47l-4,2.47a1.71,1.71,0,0,1-1.76,0l-21.13-12.19A.86.86,0,0,1,321.51,169.94Z" transform="translate(-161.3 -29)"/><path class="cls-3" d="M347.38,184.78l4.14-2.42a1.72,1.72,0,0,1,1.74,0l4,2.33a.87.87,0,0,1,0,1.48l-4,2.47a1.73,1.73,0,0,1-1.77,0l-4.14-2.38A.86.86,0,0,1,347.38,184.78Z" transform="translate(-161.3 -29)"/><path class="cls-3" d="M356.19,190.18l4.13-2.42a1.72,1.72,0,0,1,1.74,0l4,2.33a.86.86,0,0,1,0,1.48l-4,2.47a1.71,1.71,0,0,1-1.76,0l-4.15-2.38A.86.86,0,0,1,356.19,190.18Z" transform="translate(-161.3 -29)"/><path class="cls-3" d="M365.78,195.83l4.13-2.43a1.74,1.74,0,0,1,1.74,0l4,2.33a.86.86,0,0,1,0,1.48l-4,2.47a1.71,1.71,0,0,1-1.76,0l-4.15-2.39A.85.85,0,0,1,365.78,195.83Z" transform="translate(-161.3 -29)"/><path class="cls-3" d="M374.45,200.53l4.13-2.42a1.74,1.74,0,0,1,1.74,0l4,2.34a.85.85,0,0,1,0,1.47l-4,2.47a1.75,1.75,0,0,1-1.77,0L374.45,202A.86.86,0,0,1,374.45,200.53Z" transform="translate(-161.3 -29)"/></g><g id="Layer_7" data-name="Layer 7"><path class="cls-8" d="M375,75.32a1.85,1.85,0,0,0-2.78,1.6v65.35h0v2.19h0v.85a15.82,15.82,0,0,1-3.43,1.79l.61,1.72a16.63,16.63,0,0,0,2.82-1.36v3.73a5.46,5.46,0,0,0,2.72,4.73L388.88,164l.45.26h0l18.27,10.61h0l.45.26L438.77,193a2.39,2.39,0,0,0,.46-.49,2.26,2.26,0,0,0,1.84-2.22V113.87Z" transform="translate(-161.3 -29)"/><path class="cls-9" d="M476.37,137.18l-99.61-58a2.86,2.86,0,0,0-4.27,2.09l-.24,1.76v70.3a5.46,5.46,0,0,0,2.72,4.73l99.44,58.06h1.25a3.43,3.43,0,0,0,3.43-3.44v-70.8A5.46,5.46,0,0,0,476.37,137.18Z" transform="translate(-161.3 -29)"/><path class="cls-4" d="M473.64,139,375,81.73a1.85,1.85,0,0,0-2.78,1.6v70.56a5.46,5.46,0,0,0,2.72,4.73l98.62,57.28a1.86,1.86,0,0,0,2.78-1.61V143.73A5.47,5.47,0,0,0,473.64,139Z" transform="translate(-161.3 -29)"/><path class="cls-10" d="M476.37,160.05V158l-.78-.42a15.28,15.28,0,0,0-4.34-1.85c-4.13-.8-8.14.67-11.17,2a15.12,15.12,0,0,0-4.16,3.06c-1.73,1.63-3.1,2.91-5.5,2.64-3.09-.36-4.82-4.39-6.21-7.63-.22-.52-.43-1-.64-1.47-.37-.8-.71-1.62-1-2.42-1.73-4.12-3.51-8.37-8.43-11.18-4.28-2.44-9.29-2-14.1,1.16l-1.74,1.19c-3.3,2.29-6.71,4.65-10.23,3.9-1.85-.39-3.74-2.21-5.73-4.15-2.74-2.65-5.85-5.65-10-6.21-4.68-.63-8.43-.13-11.45,1.53a28.87,28.87,0,0,0-4.39,3.38,51.21,51.21,0,0,1-4.19,3.4v2.18a45,45,0,0,0,5.39-4.2,27.15,27.15,0,0,1,4.07-3.17c2.66-1.46,6-1.9,10.33-1.32,3.57.48,6.33,3.15,9,5.72,2.19,2.12,4.26,4.12,6.62,4.62,4.29.91,8.2-1.8,11.65-4.19.57-.4,1.14-.79,1.7-1.16,2.44-1.62,7.27-3.91,12.2-1.1,4.38,2.5,6,6.29,7.65,10.3.34.82.69,1.65,1.06,2.47l.63,1.43c1.49,3.48,3.53,8.25,7.67,8.72a6.38,6.38,0,0,0,.86,0c2.72,0,4.44-1.6,6.1-3.17a13.84,13.84,0,0,1,3.65-2.73c2.79-1.25,6.46-2.61,10.08-1.9a13.46,13.46,0,0,1,3.8,1.65C475.25,159.47,475.8,159.77,476.37,160.05Z" transform="translate(-161.3 -29)"/><path class="cls-11" d="M450.58,168.2a6.77,6.77,0,0,1-.89-.06c-4.65-.53-7.56-4.92-9.19-8.51-.61-1.34-1.14-2.75-1.66-4.11-1.41-3.74-2.75-7.27-5.6-9.88-4.27-3.91-10.1-.58-11.78.53l-1.28.87c-3.53,2.38-7.53,5.09-12,4.5-3.73-.49-6.46-3.06-9.11-5.55-2.07-1.94-4.21-4-6.75-4.84-3-1.05-6.68-.55-10.16,1.36a27.66,27.66,0,0,0-4.07,3.17c-2.5,2.18-5.34,4.65-8.66,5.84l-.61-1.72c3-1.07,5.7-3.42,8.08-5.5a27.92,27.92,0,0,1,4.39-3.38c3.92-2.16,8.16-2.71,11.63-1.49,2.9,1,5.19,3.16,7.4,5.24,2.54,2.39,4.95,4.65,8.09,5.07,3.79.5,7.33-1.9,10.75-4.21.43-.3.87-.59,1.3-.87,5.23-3.47,10.47-3.6,14-.36,3.17,2.9,4.64,6.8,6.07,10.58.51,1.33,1,2.71,1.62,4,1.43,3.16,3.93,7,7.74,7.46,2.92.33,5.19-1.54,7.57-3.53a33.17,33.17,0,0,1,2.94-2.25,15.48,15.48,0,0,1,11.29-2.1A15.14,15.14,0,0,1,476,160.3c1.8,1,3.5,1.95,5.34,1.69l.25,1.8c-2.44.34-4.49-.79-6.47-1.9a12.32,12.32,0,0,0-13.76.2,27.93,27.93,0,0,0-2.76,2.12C456.39,166.09,453.86,168.2,450.58,168.2Z" transform="translate(-161.3 -29)"/><polygon class="cls-3" points="289.97 130.22 289.51 130.22 289.52 173.67 289.97 173.94 289.97 130.22"/><polygon class="cls-3" points="227.58 137.7 228.03 137.96 228.03 104.64 227.58 104.64 227.58 137.7"/><polygon class="cls-3" points="246.29 148.57 246.75 148.83 246.75 113.66 246.29 113.66 246.29 148.57"/><polygon class="cls-3" points="268.41 161.41 268.87 161.68 268.87 104.64 268.41 104.64 268.41 161.41"/><path class="cls-3" d="M389.81,133.64c0,.51-.32.93-.7.93a1,1,0,1,1,.7-.93Z" transform="translate(-161.3 -29)"/><path class="cls-3" d="M408.52,142.66c0,.51-.31.93-.7.93s-.7-.42-.7-.93a.84.84,0,0,1,.7-.93C408.21,141.73,408.52,142.14,408.52,142.66Z" transform="translate(-161.3 -29)"/><path class="cls-3" d="M430.64,133.64c0,.51-.31.93-.7.93s-.7-.42-.7-.93.31-.93.7-.93S430.64,133.12,430.64,133.64Z" transform="translate(-161.3 -29)"/><ellipse class="cls-3" cx="289.74" cy="130.22" rx="0.7" ry="0.93"/></g><g id="Layer_8" data-name="Layer 8"><path class="cls-8" d="M384.09,102.63l-14-8.07v-10a3.08,3.08,0,0,0-1.53-2.66l-36.67-21a1.73,1.73,0,0,0-2.6,1.5v8.7l-8-4.6v56.44a5,5,0,0,0,.92,2.87,9.13,9.13,0,0,0-5.48,1.14l-11.57,8.78L384,181.46a1.76,1.76,0,0,0,2.65-1.52v-72.8A5.22,5.22,0,0,0,384.09,102.63Z" transform="translate(-161.3 -29)"/><path class="cls-12" d="M379.77,102.63l-92.9-53.49a4.3,4.3,0,0,0-6.2,2.3l0,.08v67.31a5.12,5.12,0,0,0,2.8,4.33l93.89,54.52,1.38.23a3.13,3.13,0,0,0,3.66-3.08V107.14A5.22,5.22,0,0,0,379.77,102.63Z" transform="translate(-161.3 -29)"/><path class="cls-4" d="M377.18,104.36,283.29,50.27a1.77,1.77,0,0,0-2.65,1.52v66.75a5.19,5.19,0,0,0,2.6,4.5l93.88,54.53a1.76,1.76,0,0,0,2.65-1.52V108.87A5.23,5.23,0,0,0,377.18,104.36Z" transform="translate(-161.3 -29)"/><polygon class="cls-10" points="142.85 50.24 125.18 40.03 125.22 38.05 142.85 48.23 142.85 50.24"/><polygon class="cls-10" points="142.85 55.31 125.18 45.12 125.22 43.14 142.85 53.31 142.85 55.31"/><polygon class="cls-10" points="134.89 55.78 125.18 50.2 125.22 48.23 134.89 53.81 134.89 55.78"/><path class="cls-13" d="M377.18,104.36,283.29,50.27a1.77,1.77,0,0,0-2.65,1.52v3.42l99.13,57.07v-3.41A5.23,5.23,0,0,0,377.18,104.36Z" transform="translate(-161.3 -29)"/><path class="cls-11" d="M379.42,129.67c-1.1-2.43-2.83-6.06-5.9-6.42-3.43-.4-6.68,3.53-8,6.25-1.53,3-5,8.22-9.08,7s-4.46-7.18-4.62-10.59c-.31-6.79-.52-19.25-9.5-20.46-8.55-1.15-11.79,6.92-15.22,13.08-2.49,4.46-7.73,10.15-13.52,7.83-4.09-1.64-6.33-6-8.25-9.67-3.72-7.08-7.81-14.9-16.58-8.85a66,66,0,0,0-8.06,7.13v3.53a5.19,5.19,0,0,0,2.6,4.5l93.88,54.53a1.76,1.76,0,0,0,2.65-1.52V130.54C379.65,130.25,379.54,130,379.42,129.67Z" transform="translate(-161.3 -29)"/><path class="cls-14" d="M364.22,81.89l-36.67-21a1.73,1.73,0,0,0-2.6,1.5V82.44a3.07,3.07,0,0,0,1.54,2.66l15.79,9,8.06,4.72,12.8,7.57a1.73,1.73,0,0,0,2.61-1.49V84.55A3.08,3.08,0,0,0,364.22,81.89Z" transform="translate(-161.3 -29)"/><path class="cls-3" d="M325,64.76V82.44a3.07,3.07,0,0,0,1.54,2.66l13.88,8,1.64,6a1.45,1.45,0,0,0,2.06.91l4.36-2.22,12.8,7.57a1.72,1.72,0,0,0,2.61-1.49V86a3.07,3.07,0,0,0-1.53-2.66L327.55,63.26A1.74,1.74,0,0,0,325,64.76Z" transform="translate(-161.3 -29)"/><path class="cls-3" d="M342.5,157.46l.36.21V100.83l-.36-.06Z" transform="translate(-161.3 -29)"/><path class="cls-4" d="M287,55.51a1.05,1.05,0,0,1-1.36.55,1,1,0,0,1-.25-1.44.94.94,0,1,1,1.61.89Z" transform="translate(-161.3 -29)"/><path class="cls-4" d="M290.54,57.43a.94.94,0,1,1-.25-1.45A1.07,1.07,0,0,1,290.54,57.43Z" transform="translate(-161.3 -29)"/><path class="cls-4" d="M294.11,59.34a.94.94,0,1,1-.25-1.45A1.06,1.06,0,0,1,294.11,59.34Z" transform="translate(-161.3 -29)"/></g><g id="Layer_9" data-name="Layer 9"><path class="cls-8" d="M458.07,183.8,397.54,149a1.11,1.11,0,0,0-1.67,1v20.85l11.73,6.81h0l.45.26,42.77,24.84.45.27,8.43,4.89V186.62A3.25,3.25,0,0,0,458.07,183.8Z" transform="translate(-161.3 -29)"/><path class="cls-15" d="M454.3,186.5l-60.54-34.85a1.11,1.11,0,0,0-1.66,1v44a3.28,3.28,0,0,0,1.62,2.83l60.54,35.11a1.1,1.1,0,0,0,1.66-.95V189.32A3.27,3.27,0,0,0,454.3,186.5Z" transform="translate(-161.3 -29)"/><path class="cls-3" d="M452.67,187.58l-58.91-33.94a1.11,1.11,0,0,0-1.66,1v41.88a3.27,3.27,0,0,0,1.62,2.82l58.91,34.22a1.11,1.11,0,0,0,1.66-1V190.41A3.3,3.3,0,0,0,452.67,187.58Z" transform="translate(-161.3 -29)"/><polygon class="cls-4" points="290.07 174.81 234.5 143.14 234.48 141.89 290.07 173.57 290.07 174.81"/><polygon class="cls-11" points="246.35 143.35 235.67 137.27 235.69 135.41 246.35 141.48 246.35 143.35"/><polygon class="cls-4" points="289.95 180.21 234.38 148.54 234.37 147.29 289.95 178.98 289.95 180.21"/><polygon class="cls-4" points="289.84 185.61 234.27 153.94 234.25 152.69 289.84 184.38 289.84 185.61"/><polygon class="cls-4" points="289.73 191.01 234.16 159.34 234.14 158.1 289.73 189.78 289.73 191.01"/><polygon class="cls-4" points="265.59 182.73 234.04 164.74 234.03 163.5 265.59 181.49 265.59 182.73"/><path class="cls-4" d="M452.67,187.58l-58.91-33.94a1.11,1.11,0,0,0-1.66,1v3.3l62.19,35.81v-3.3A3.3,3.3,0,0,0,452.67,187.58Z" transform="translate(-161.3 -29)"/><path class="cls-3" d="M397.69,158.28a1,1,0,1,1-.31-1.47A1.06,1.06,0,0,1,397.69,158.28Z" transform="translate(-161.3 -29)"/><path class="cls-3" d="M400.5,159.91a1,1,0,1,1-.31-1.47A1.07,1.07,0,0,1,400.5,159.91Z" transform="translate(-161.3 -29)"/><path class="cls-3" d="M403.17,161.5a1,1,0,1,1-.31-1.47A1.06,1.06,0,0,1,403.17,161.5Z" transform="translate(-161.3 -29)"/></g><g id="Layer_12" data-name="Layer 12"><path class="cls-16" d="M182.77,185.54c-1.94,1.1-1.94,2.91,0,4l63.85,36.82a7.81,7.81,0,0,0,7,0l28.49-16.31c1.94-1.11,1.94-2.93,0-4l-63.66-36.72a7.89,7.89,0,0,0-7,0Z" transform="translate(-161.3 -29)"/><path class="cls-17" d="M183.16,185.5l24.81-14s1.25-.71,1.27-.71,1.28-.7,1.28-.69l1.09-.59a7.94,7.94,0,0,1,7,.12L281.76,206c1.95,1.12,1.94,3,0,4.12L257,224.28s-1.24.71-1.26.71h0s-1.25.69-1.25.69l-1.06.58a7.92,7.92,0,0,1-7-.11l-63.37-36.54C181.19,188.48,181.2,186.61,183.16,185.5Z" transform="translate(-161.3 -29)"/><path class="cls-18" d="M183.55,185.47l24.62-13.94s1.22-.69,1.26-.69,1.27-.67,1.28-.67l1.08-.55a8,8,0,0,1,6.89.21L281.37,206c2,1.13,2,3.07,0,4.2l-24.51,14s-1.22.69-1.26.69h0s-1.24.67-1.25.66l-1,.55a8,8,0,0,1-6.89-.2l-62.88-36.26C181.56,188.52,181.57,186.59,183.55,185.47Z" transform="translate(-161.3 -29)"/><path class="cls-19" d="M183.94,185.43l24.42-13.83s1.2-.67,1.26-.67,1.26-.65,1.27-.64l1.07-.52c1.76-1,5.08-.71,6.83.3L281,205.94c2,1.14,2,3.14,0,4.28l-24.33,13.92s-1.18.67-1.24.67h0c-.06,0-1.24.64-1.25.64l-1,.51c-1.74,1-5.07.72-6.81-.29l-62.39-36C181.93,188.55,181.94,186.56,183.94,185.43Z" transform="translate(-161.3 -29)"/><path class="cls-20" d="M184.32,185.39l24.24-13.72s1.17-.65,1.25-.65,1.25-.62,1.26-.61l1.07-.49c1.69-.95,5.07-.58,6.75.39l61.71,35.58c2,1.16,2,3.22,0,4.37l-24.13,13.81s-1.16.66-1.24.66h0c-.08,0-1.23.61-1.24.6l-1,.47c-1.69,1-5.06.61-6.74-.36l-61.9-35.7C182.3,188.58,182.31,186.53,184.32,185.39Z" transform="translate(-161.3 -29)"/><path class="cls-21" d="M184.71,185.35l24-13.61s1.15-.64,1.25-.64,1.24-.59,1.26-.58l1.05-.45c1.63-.92,5.06-.46,6.68.48l61.23,35.3c2,1.17,2,3.29,0,4.45L256.26,224a12.7,12.7,0,0,1-1.23.64h0c-.1,0-1.22.58-1.23.57l-1,.44c-1.63.93-5.06.48-6.68-.45l-61.41-35.42C182.67,188.61,182.67,186.5,184.71,185.35Z" transform="translate(-161.3 -29)"/><path class="cls-22" d="M185.1,185.31,209,171.81a11.92,11.92,0,0,1,1.24-.62c.11,0,1.23-.56,1.25-.55l1.05-.41c1.56-.89,5-.34,6.61.56l60.73,35c2.05,1.18,2,3.35,0,4.53l-23.75,13.59a11.71,11.71,0,0,1-1.23.62h0c-.12,0-1.21.56-1.23.55l-1,.4c-1.56.9-5,.35-6.6-.54l-60.92-35.14C183,188.64,183,186.47,185.1,185.31Z" transform="translate(-161.3 -29)"/><path class="cls-23" d="M185.49,185.27l23.65-13.39a9,9,0,0,1,1.24-.6c.13,0,1.22-.54,1.25-.52l1-.38c1.5-.85,5-.22,6.54.65l60.25,34.74c2.06,1.19,2.06,3.42,0,4.61l-23.56,13.48a9.24,9.24,0,0,1-1.22.61h0c-.15,0-1.21.52-1.23.51l-1,.37c-1.5.86-5,.23-6.53-.63l-60.43-34.86C183.4,188.67,183.41,186.45,185.49,185.27Z" transform="translate(-161.3 -29)"/><path class="cls-24" d="M185.87,185.23l23.47-13.29a9.36,9.36,0,0,1,1.22-.58c.16,0,1.22-.5,1.25-.49l1-.34c1.44-.82,5-.09,6.46.74l59.76,34.46c2.09,1.2,2.08,3.49,0,4.69l-23.37,13.37a8,8,0,0,1-1.21.59h0c-.16,0-1.2.5-1.22.48l-1,.34c-1.44.82-5,.1-6.46-.72l-60-34.57C183.77,188.7,183.78,186.42,185.87,185.23Z" transform="translate(-161.3 -29)"/><path class="cls-25" d="M186.26,185.19,209.53,172a8.87,8.87,0,0,1,1.22-.56c.17,0,1.21-.48,1.25-.46l1-.31c1.38-.78,5,0,6.39.83l59.28,34.18c2.1,1.21,2.1,3.56,0,4.77l-23.18,13.26a7.25,7.25,0,0,1-1.21.57h0a12.93,12.93,0,0,0-1.22.46l-1,.3c-1.37.79-5,0-6.38-.81L186.24,190C184.14,188.73,184.15,186.39,186.26,185.19Z" transform="translate(-161.3 -29)"/><path class="cls-26" d="M186.65,185.15l23.08-13.07a7.84,7.84,0,0,1,1.21-.54c.19,0,1.2-.46,1.24-.43l1-.28c1.32-.74,5,.16,6.33.92l58.78,33.9a2.64,2.64,0,0,1,0,4.85l-23,13.16a7.42,7.42,0,0,1-1.21.54h0c-.2,0-1.18.45-1.21.43l-1,.27c-1.31.75-5-.15-6.32-.9l-59-34A2.63,2.63,0,0,1,186.65,185.15Z" transform="translate(-161.3 -29)"/><path class="cls-27" d="M187,185.11l22.9-13a7,7,0,0,1,1.2-.53c.21,0,1.19-.42,1.23-.4l1-.24c1.25-.7,5,.29,6.25,1l58.3,33.62a2.7,2.7,0,0,1,0,4.93l-22.8,13.05a6.63,6.63,0,0,1-1.2.53h0c-.22,0-1.17.41-1.2.39l-1,.24c-1.24.71-5-.27-6.24-1L187,190A2.69,2.69,0,0,1,187,185.11Z" transform="translate(-161.3 -29)"/><path class="cls-28" d="M187.42,185.07l22.7-12.85a6.43,6.43,0,0,1,1.2-.51c.23,0,1.18-.4,1.23-.37l1-.2c1.19-.68,5,.41,6.18,1.09l57.81,33.34a2.74,2.74,0,0,1,0,5l-22.6,12.94a6.3,6.3,0,0,1-1.19.51h0a12.11,12.11,0,0,0-1.2.37l-1,.2c-1.19.68-5-.4-6.17-1.08l-58-33.44A2.74,2.74,0,0,1,187.42,185.07Z" transform="translate(-161.3 -29)"/><path class="cls-29" d="M187.81,185l22.51-12.75a5.15,5.15,0,0,1,1.19-.49c.25,0,1.17-.37,1.22-.34l1-.17c1.13-.64,5,.53,6.1,1.18l57.33,33.06a2.79,2.79,0,0,1,0,5.08l-22.42,12.84a5.24,5.24,0,0,1-1.18.49h0c-.26,0-1.16.36-1.2.34l-.94.17c-1.13.64-5-.53-6.1-1.17l-57.5-33.16A2.79,2.79,0,0,1,187.81,185Z" transform="translate(-161.3 -29)"/><path class="cls-30" d="M188.2,185l22.31-12.64a5,5,0,0,1,1.19-.48c.27,0,1.16-.34,1.22-.31l1-.13c1.07-.6,5,.66,6,1.27l56.83,32.78a2.84,2.84,0,0,1,0,5.16l-22.22,12.73a4.91,4.91,0,0,1-1.18.48h0a12,12,0,0,0-1.19.31l-.94.13c-1.06.6-5-.65-6-1.26l-57-32.88A2.84,2.84,0,0,1,188.2,185Z" transform="translate(-161.3 -29)"/><path class="cls-31" d="M188.58,185l22.13-12.53a4.66,4.66,0,0,1,1.18-.46c.29,0,1.16-.31,1.21-.28l1-.1c1-.57,5,.78,6,1.36l56.35,32.5a2.9,2.9,0,0,1,0,5.24l-22,12.62a4.66,4.66,0,0,1-1.18.46h0a11.79,11.79,0,0,0-1.18.28l-.93.1c-1,.57-5-.78-6-1.35l-56.52-32.6A2.89,2.89,0,0,1,188.58,185Z" transform="translate(-161.3 -29)"/><path class="cls-32" d="M189,184.92,210.9,172.5a4.6,4.6,0,0,1,1.18-.44c.3,0,1.15-.29,1.2-.25l.95-.07c.94-.53,5,.91,5.89,1.45L276,205.4a3,3,0,0,1,0,5.33l-21.85,12.51a4.36,4.36,0,0,1-1.17.44h0c-.32,0-1.13.28-1.18.25l-.91.07c-.94.53-5-.9-5.89-1.44l-56-32.32A2.94,2.94,0,0,1,189,184.92Z" transform="translate(-161.3 -29)"/><path class="cls-33" d="M189.36,184.88l21.74-12.31a4.27,4.27,0,0,1,1.17-.43c.32,0,1.14-.25,1.2-.22l.94,0c.87-.49,4.94,1,5.82,1.54l55.37,31.93a3,3,0,0,1,0,5.41l-21.65,12.4a4.36,4.36,0,0,1-1.16.42h0c-.34,0-1.13.25-1.18.23l-.91,0c-.87.51-4.94-1-5.81-1.52l-55.54-32A3,3,0,0,1,189.36,184.88Z" transform="translate(-161.3 -29)"/><path class="cls-34" d="M189.75,184.84l21.54-12.2a3.83,3.83,0,0,1,1.17-.41c.34,0,1.13-.23,1.19-.19h.93c.82-.46,4.94,1.15,5.75,1.62l54.88,31.65a3.06,3.06,0,0,1,0,5.49L253.75,223.1a4.15,4.15,0,0,1-1.16.41h0c-.36,0-1.12.22-1.17.19h-.9c-.81.47-4.93-1.14-5.74-1.61l-55.06-31.75A3.06,3.06,0,0,1,189.75,184.84Z" transform="translate(-161.3 -29)"/><path class="cls-35" d="M190.13,184.8l21.36-12.09a3.63,3.63,0,0,1,1.16-.39c.36,0,1.12-.2,1.19-.16l.92,0c.75-.43,4.92,1.28,5.67,1.71l54.4,31.37a3.11,3.11,0,0,1,0,5.57L253.55,223a3.65,3.65,0,0,1-1.15.39h0c-.38,0-1.11.19-1.16.16l-.89,0c-.75.43-4.93-1.27-5.67-1.7l-54.57-31.47A3.11,3.11,0,0,1,190.13,184.8Z" transform="translate(-161.3 -29)"/><path class="cls-36" d="M190.52,184.76l21.16-12a3.59,3.59,0,0,1,1.16-.38c.38,0,1.11-.17,1.18-.13l.91.08c.69-.39,4.92,1.41,5.6,1.8l53.91,31.09a3.17,3.17,0,0,1,0,5.65L253.36,223a3.55,3.55,0,0,1-1.15.37h0c-.4,0-1.1.17-1.16.14l-.88-.08c-.68.4-4.91-1.4-5.59-1.79L190.5,190.41A3.16,3.16,0,0,1,190.52,184.76Z" transform="translate(-161.3 -29)"/><path class="cls-37" d="M190.91,184.72l21-11.87a3.43,3.43,0,0,1,1.15-.36c.4,0,1.1-.14,1.18-.1l.9.11c.62-.35,4.9,1.53,5.53,1.89l53.42,30.81a3.22,3.22,0,0,1,0,5.73l-20.88,12a3.43,3.43,0,0,1-1.15.36h0c-.42,0-1.09.13-1.15.1l-.87-.11c-.63.36-4.9-1.52-5.53-1.88l-53.58-30.91A3.21,3.21,0,0,1,190.91,184.72Z" transform="translate(-161.3 -29)"/><path class="cls-38" d="M191.3,184.68l20.77-11.76a3.45,3.45,0,0,1,1.15-.34c.41,0,1.09-.12,1.17-.08l.89.15c.56-.32,4.9,1.66,5.46,2l52.94,30.53a3.28,3.28,0,0,1,0,5.81L253,222.82a3.29,3.29,0,0,1-1.13.34h0c-.44,0-1.09.11-1.15.07l-.86-.14c-.57.32-4.9-1.65-5.46-2l-53.1-30.62A3.28,3.28,0,0,1,191.3,184.68Z" transform="translate(-161.3 -29)"/><path class="cls-39" d="M191.68,184.64,212.27,173a3,3,0,0,1,1.14-.32c.43,0,1.08-.1,1.16,0l.88.18c.51-.28,4.89,1.78,5.39,2.07l52.45,30.25a3.33,3.33,0,0,1,0,5.89l-20.5,11.74a3.32,3.32,0,0,1-1.13.32h0c-.46,0-1.08.08-1.15.05l-.85-.18c-.5.29-4.88-1.77-5.38-2.06l-52.61-30.34A3.33,3.33,0,0,1,191.68,184.64Z" transform="translate(-161.3 -29)"/><path class="cls-40" d="M192.07,184.61l20.4-11.55a2.89,2.89,0,0,1,1.13-.31,9.06,9.06,0,0,1,1.16,0l.87.22c.44-.25,4.88,1.9,5.32,2.15l52,30a3.39,3.39,0,0,1,0,6l-20.32,11.63a3.14,3.14,0,0,1-1.12.3h0c-.48,0-1.07.06-1.14,0l-.84-.21c-.44.25-4.88-1.9-5.31-2.15l-52.12-30.06A3.38,3.38,0,0,1,192.07,184.61Z" transform="translate(-161.3 -29)"/><path class="cls-41" d="M192.46,184.57l20.2-11.44a2.93,2.93,0,0,1,1.13-.29,7.78,7.78,0,0,1,1.15,0l.86.26c.38-.21,4.88,2,5.25,2.24L272.52,205a3.44,3.44,0,0,1,0,6.05l-20.12,11.52a2.92,2.92,0,0,1-1.12.29h0a8.23,8.23,0,0,1-1.13,0l-.84-.24c-.37.21-4.86-2-5.23-2.24l-51.64-29.78A3.43,3.43,0,0,1,192.46,184.57Z" transform="translate(-161.3 -29)"/><path class="cls-42" d="M192.84,184.53l20-11.33a2.86,2.86,0,0,1,1.12-.27,6.52,6.52,0,0,1,1.15,0l.85.29c.31-.18,4.86,2.15,5.17,2.33l51,29.41a3.49,3.49,0,0,1,0,6.13L252.2,222.54a2.92,2.92,0,0,1-1.12.27h0a6.81,6.81,0,0,1-1.12,0l-.83-.28c-.31.18-4.86-2.15-5.17-2.33l-51.14-29.49A3.49,3.49,0,0,1,192.84,184.53Z" transform="translate(-161.3 -29)"/><path class="cls-43" d="M193.23,184.49l19.82-11.22a2.86,2.86,0,0,1,1.12-.26,4.59,4.59,0,0,1,1.14.08l.84.32c.25-.14,4.86,2.28,5.1,2.42L271.75,205a3.55,3.55,0,0,1,0,6.22L252,222.47a2.78,2.78,0,0,1-1.1.25h0a5.69,5.69,0,0,1-1.13-.07l-.81-.31c-.25.14-4.85-2.28-5.1-2.42l-50.65-29.21A3.55,3.55,0,0,1,193.23,184.49Z" transform="translate(-161.3 -29)"/><path class="cls-44" d="M193.62,184.45l19.63-11.11a2.63,2.63,0,0,1,1.11-.24,4.76,4.76,0,0,1,1.14.1l.83.36c.19-.1,4.84,2.41,5,2.51l50,28.84a3.61,3.61,0,0,1,0,6.3L251.81,222.4a2.79,2.79,0,0,1-1.1.24h0a4,4,0,0,1-1.12-.11l-.81-.34c-.18.1-4.83-2.4-5-2.51l-50.17-28.93A3.6,3.6,0,0,1,193.62,184.45Z" transform="translate(-161.3 -29)"/><path class="cls-45" d="M194,184.41l19.43-11a2.64,2.64,0,0,1,1.1-.22,3.72,3.72,0,0,1,1.14.13l.82.4c.13-.08,4.84,2.52,5,2.59L271,204.87a3.66,3.66,0,0,1,0,6.38l-19.35,11.08a2.82,2.82,0,0,1-1.1.22h0a3.81,3.81,0,0,1-1.11-.13l-.8-.38c-.12.07-4.83-2.53-5-2.6L194,190.79A3.65,3.65,0,0,1,194,184.41Z" transform="translate(-161.3 -29)"/><path class="cls-46" d="M194.39,184.37l19.25-10.9a2.8,2.8,0,0,1,1.09-.2,3.14,3.14,0,0,1,1.13.17l.82.43c.06,0,4.82,2.65,4.88,2.68l49,28.28a3.72,3.72,0,0,1,0,6.46l-19.17,11a2.61,2.61,0,0,1-1.09.2h0a3.08,3.08,0,0,1-1.11-.16l-.78-.41c-.07,0-4.82-2.65-4.88-2.69l-49.19-28.37A3.71,3.71,0,0,1,194.39,184.37Z" transform="translate(-161.3 -29)"/><path class="cls-3" d="M250.14,222.37a2.66,2.66,0,0,1-1.1-.19l-54.28-31.3a3.77,3.77,0,0,1,0-6.55l19.05-10.79a3.42,3.42,0,0,1,2.22,0l54.16,31.24a3.77,3.77,0,0,1,0,6.54l-19,10.86a2.66,2.66,0,0,1-1.09.18Z" transform="translate(-161.3 -29)"/><path class="cls-47" d="M183.4,182.62V184a2.77,2.77,0,0,0,1.37,2.39l61.78,35.69a7.57,7.57,0,0,0,6.8,0l27.58-15.67a2.73,2.73,0,0,0,1.38-2.35h0a5.52,5.52,0,0,0-2.76-4.81L219.26,164.4a7.59,7.59,0,0,0-6.81,0l-27.75,16A2.61,2.61,0,0,0,183.4,182.62Z" transform="translate(-161.3 -29)"/><path class="cls-6" d="M184.81,180.06c-1.88,1.06-1.89,2.82,0,3.9l61.76,35.61a7.54,7.54,0,0,0,6.8,0l27.56-15.77c1.87-1.07,1.87-2.83,0-3.91l-61.57-35.5a7.59,7.59,0,0,0-6.81,0Z" transform="translate(-161.3 -29)"/><ellipse class="cls-10" cx="102.14" cy="179.36" rx="4.71" ry="2.72"/><path class="cls-3" d="M199.22,176.4a.28.28,0,0,1-.24-.14.28.28,0,0,1,.1-.38l6.15-3.55a.28.28,0,0,1,.38.1.29.29,0,0,1-.1.39l-6.15,3.54A.23.23,0,0,1,199.22,176.4Z" transform="translate(-161.3 -29)"/><path class="cls-3" d="M206.27,172.33a.27.27,0,0,1-.24-.14.28.28,0,0,1,.1-.38l1.37-.79a.28.28,0,0,1,.38.1.29.29,0,0,1-.1.39l-1.37.79A.32.32,0,0,1,206.27,172.33Z" transform="translate(-161.3 -29)"/><polygon class="cls-3" points="28.41 156.28 59.72 137.97 111.6 167.88 80.02 186.19 28.41 156.28"/></g><g id="Layer_10" data-name="Layer 10"><g class="cls-48"><ellipse class="cls-49" cx="29.33" cy="196.25" rx="29.37" ry="16.95"/><path class="cls-50" d="M211.24,218.77h-2.35a15.51,15.51,0,0,0-3.78-3c-8.18-4.71-21.55-4.71-29.72,0a15.13,15.13,0,0,0-3.78,3h-2.35v5.55h0c0,3.12,2,6.25,6.13,8.62,8.17,4.72,21.54,4.72,29.72,0,4.1-2.37,6.14-5.5,6.13-8.62h0Z" transform="translate(-161.3 -29)"/><path class="cls-11" d="M175.39,215.78a15.13,15.13,0,0,0-3.78,3h-2.35v5.55h0c0,3.12,2,6.25,6.13,8.62.12.08.25.14.38.21v-5.59l4-13.72A23.63,23.63,0,0,0,175.39,215.78Z" transform="translate(-161.3 -29)"/><ellipse class="cls-51" cx="28.95" cy="189.77" rx="21.02" ry="12.13"/><path class="cls-52" d="M190.25,206.65a30.37,30.37,0,0,0-14.86,3.54c-8.18,4.72-8.18,12.44,0,17.16l.38.21,14.48-6.89Z" transform="translate(-161.3 -29)"/><path class="cls-3" d="M169.54,220.67h20.71v-14a30.37,30.37,0,0,0-14.86,3.54C170.46,213,168.53,217,169.54,220.67Z" transform="translate(-161.3 -29)"/></g></g><g id="Layer_11" data-name="Layer 11"><polygon class="cls-51" points="96.59 37.61 105.67 32.37 114.52 37.61 105.67 42.85 96.59 37.61"/><polygon class="cls-50" points="96.59 37.61 96.59 110.42 105.67 115.37 105.67 42.85 96.59 37.61"/><polygon class="cls-51" points="114.52 37.61 114.52 110.13 105.67 115.37 105.67 42.85 114.52 37.61"/><polygon class="cls-11" points="82.08 70.88 91.16 65.64 100.01 70.88 91.16 76.12 82.08 70.88"/><polygon class="cls-53" points="82.08 70.88 82.08 118.72 91.16 123.68 91.16 76.12 82.08 70.88"/><polygon class="cls-54" points="100.01 70.88 100.01 118.44 91.16 123.68 91.16 76.12 100.01 70.88"/><polygon class="cls-55" points="67.58 62.25 76.65 57.01 85.5 62.25 76.65 67.49 67.58 62.25"/><polygon class="cls-3" points="67.58 62.25 67.58 127.03 76.65 131.99 76.65 67.49 67.58 62.25"/><polygon class="cls-55" points="85.5 62.25 85.5 126.75 76.65 131.99 76.65 67.49 85.5 62.25"/></g><g id="Layer_13" data-name="Layer 13"><path class="cls-56" d="M435,260.79c4.45-2.57,4.45-6.77,0-9.34s-11.74-2.57-16.19,0-4.45,6.77,0,9.34S430.54,263.36,435,260.79Z" transform="translate(-161.3 -29)"/><path class="cls-57" d="M420.53,253.11c4.45-2.57,4.45-6.77,0-9.34s-11.73-2.57-16.19,0-4.45,6.77,0,9.34S416.08,255.68,420.53,253.11Z" transform="translate(-161.3 -29)"/><path class="cls-58" d="M405.93,245.43c4.45-2.57,4.45-6.77,0-9.34s-11.73-2.57-16.18,0-4.46,6.77,0,9.34S401.48,248,405.93,245.43Z" transform="translate(-161.3 -29)"/><path class="cls-53" d="M403.17,243c2.87-1.66,2.87-4.36,0-6a11.59,11.59,0,0,0-10.42,0c-2.87,1.66-2.87,4.36,0,6A11.59,11.59,0,0,0,403.17,243Z" transform="translate(-161.3 -29)"/><path class="cls-50" d="M417.65,251.45c2.86-1.66,2.86-4.36,0-6a11.59,11.59,0,0,0-10.42,0c-2.87,1.66-2.87,4.36,0,6A11.59,11.59,0,0,0,417.65,251.45Z" transform="translate(-161.3 -29)"/><polygon class="cls-53" points="243.78 210.94 229.3 210.94 229.3 162.99 244.02 162.99 243.78 210.94"/><polygon class="cls-50" points="258.25 218.94 243.78 218.94 243.78 182.69 258.5 182.69 258.25 218.94"/><path class="cls-11" d="M403.17,195c2.87-1.65,2.87-4.36,0-6a11.52,11.52,0,0,0-10.42,0c-2.87,1.65-2.87,4.36,0,6A11.52,11.52,0,0,0,403.17,195Z" transform="translate(-161.3 -29)"/><path class="cls-51" d="M417.65,214.7c2.86-1.65,2.86-4.36,0-6a11.59,11.59,0,0,0-10.42,0c-2.87,1.66-2.87,4.37,0,6A11.52,11.52,0,0,0,417.65,214.7Z" transform="translate(-161.3 -29)"/><path class="cls-3" d="M432,259.13c2.83-1.66,2.83-4.36,0-6a11.31,11.31,0,0,0-10.29,0c-2.84,1.66-2.84,4.36,0,6A11.31,11.31,0,0,0,432,259.13Z" transform="translate(-161.3 -29)"/><polygon class="cls-3" points="272.79 226.93 258.25 226.93 258.25 203.38 272.97 203.38 272.79 226.93"/><path class="cls-55" d="M432.12,235.39c2.87-1.66,2.87-4.36,0-6a11.59,11.59,0,0,0-10.42,0c-2.86,1.66-2.86,4.36,0,6A11.59,11.59,0,0,0,432.12,235.39Z" transform="translate(-161.3 -29)"/></g><g id="Layer_14" data-name="Layer 14"><polygon class="cls-52" points="133.42 182.07 130.79 183.48 220.35 235.18 221.82 235.18 221.29 182.07 208.5 189.45 195.7 189.45 189.31 178.37 182.91 182.07 176.51 185.76 170.12 174.68 163.72 178.37 150.93 178.37 144.53 182.07 133.42 182.07"/><polygon class="cls-11" points="130.79 183.48 220.35 235.18 220.35 183.48 207.56 190.86 194.76 190.86 188.37 179.78 181.97 183.48 175.57 187.17 169.18 176.09 162.78 179.78 149.99 179.78 143.59 183.48 130.79 183.48"/><polygon class="cls-8" points="216.67 233.06 216.2 185.87 207.56 190.86 206.66 190.86 203.4 192.74 190.6 192.74 184.43 182.05 181.97 183.48 175.57 187.17 175.35 186.78 171.41 189.05 165.24 178.36 162.78 179.78 161.88 179.78 158.62 181.66 146.73 181.66 143.59 183.48 142.69 183.48 139.43 185.36 134.05 185.36 216.67 233.06"/><polygon class="cls-59" points="126.37 185.36 123.74 186.77 213.3 238.47 214.77 238.47 214.77 184.38 200.8 192.74 188.65 192.74 182.05 181.12 175.65 184.82 169.26 188.51 163.06 177.97 156.67 181.66 143.87 181.66 137.48 185.36 126.37 185.36"/><polygon class="cls-55" points="123.74 186.77 213.3 238.47 213.3 186.77 200.51 194.15 187.71 194.15 181.31 183.07 174.92 186.77 168.52 190.46 162.12 179.38 155.73 183.07 142.93 183.07 136.54 186.77 123.74 186.77"/><polygon class="cls-60" points="206.9 240.29 158.75 267.94 152.35 264.24 200.51 236.59 206.9 240.29"/><polygon class="cls-60" points="194.33 232.75 161.94 251.21 155.55 247.52 187.94 229.05 194.33 232.75"/><polygon class="cls-60" points="181.76 225.2 124.19 258.44 117.79 254.75 175.37 221.51 181.76 225.2"/><polygon class="cls-60" points="169.19 217.66 121.07 245.24 114.67 241.54 162.8 213.97 169.19 217.66"/><polygon class="cls-60" points="156.63 210.12 124.27 228.97 117.87 225.27 150.23 206.43 156.63 210.12"/><polygon class="cls-60" points="144.06 202.58 86.48 235.82 80.09 232.13 137.66 198.88 144.06 202.58"/><polygon class="cls-60" points="131.49 195.04 98.78 213.6 92.39 209.91 125.09 191.34 131.49 195.04"/></g><g id="Layer_15" data-name="Layer 15"><path class="cls-61" d="M171.45,257.49c8.06-4.65,21.26-4.65,29.32,0s8.06,12.27,0,16.93-21.26,4.65-29.32,0S163.39,262.15,171.45,257.49Z" transform="translate(-161.3 -29)"/><path class="cls-3" d="M206.14,258.92c0-.43-.6-.77-1.34-.77h-2.86c-.47,0-1.26.5-1.37.35s-.13-.54.21-.73l2-1.17c.52-.3-2.8-.16-3.33-.46l0-2.52a2.1,2.1,0,0,0-1.89,0l-2,1.17a1.73,1.73,0,0,1-1.22.14c-.29-.08-.6-.15-.87-.21-.43-.09-.7-.33-.7-.59v-1.66c0-.43-.6-.77-1.34-.77h-4.66c-.74,0-1.34.34-1.34.77v1.64c0,.28-.3.51-.75.6l-.82.2a1.8,1.8,0,0,1-1.28-.11l-2-1.17a2.12,2.12,0,0,0-1.9,0l-.24,2.74c-.52.3-3.56-.05-3,.25l2.05,1.17c.32.18.41.46.23.7s-.92-.33-1.38-.33h-2.88c-.74,0-1.34.34-1.34.77v3.91c0,.43.6.77,1.34.77h1.68l0,3.23a.49.49,0,0,0,0,.17h0a.7.7,0,0,0,.38.47l3.3,1.89a2.07,2.07,0,0,0,1.17.2h0v0a1.68,1.68,0,0,0,.69-.19l2-1.18a1.73,1.73,0,0,1,1.22-.13l.87.2c.42.09.7.33.7.59v1.66c0,.43.6.77,1.34.77h4.66c.74,0,1.33-.35,1.33-.77v-1.65c0-.27.3-.51.74-.6l.79-.19a1.82,1.82,0,0,1,1.27.12l2,1.16a1.91,1.91,0,0,0,.69.2v0l0,0a2,2,0,0,0,1.16-.2l3.29-1.9a.72.72,0,0,0,.38-.44h0v-.11l0-3.31h1.65c.74,0,1.33-.34,1.33-.77Zm-10.54,3.26c-.77,2.37-5,3.71-8.87,2.86-2.92-.65-4.69-2.46-4.11-4.23.77-2.36,5-3.7,8.87-2.85C194.41,258.6,196.18,260.42,195.6,262.18Z" transform="translate(-161.3 -29)"/><path class="cls-3" d="M203.2,254.46v-2.1h-3l-.67-.39a2.1,2.1,0,0,0-1.89,0l-.67.39h-4.16v-1.54c0-.42-.6-.77-1.34-.77h-4.66c-.74,0-1.34.35-1.34.77v1.54h-4.23l-.64-.37a2.12,2.12,0,0,0-1.9,0l-.63.37h-3v2.06a.64.64,0,0,0,.39.56l2.05,1.17,23.34,0,2-1.16a.69.69,0,0,0,.38-.5Z" transform="translate(-161.3 -29)"/><path class="cls-55" d="M201.15,259.9h3.66c.74,0,1.33-.34,1.33-.77v-2.68c0-.43-.6-.77-1.34-.77h-2.86a1.26,1.26,0,0,1-1.05-.43l-.32-.45c-.2-.25-.13-.54.21-.73l2-1.17a.58.58,0,0,0,0-1.09l-3.3-1.89a2.1,2.1,0,0,0-1.89,0l-2,1.17a1.73,1.73,0,0,1-1.22.14l-.87-.21c-.43-.09-.7-.33-.7-.59v-1.66c0-.43-.6-.77-1.34-.77h-4.66c-.74,0-1.34.34-1.34.77v1.64c0,.27-.3.51-.75.6l-.82.2a1.74,1.74,0,0,1-1.28-.12l-2-1.16a2.12,2.12,0,0,0-1.9,0l-3.28,1.9a.58.58,0,0,0,0,1.09l2.05,1.17c.32.18.41.46.23.7s-.24.35-.35.5a1.27,1.27,0,0,1-1,.41h-2.88c-.74,0-1.34.35-1.34.77v2.68c0,.43.6.77,1.34.77h2.86a1.25,1.25,0,0,1,1.05.43q.15.22.33.45c.2.25.13.54-.21.73l-2,1.17c-.53.3-.52.79,0,1.09l3.3,1.89a2.1,2.1,0,0,0,1.89,0l2-1.18a1.73,1.73,0,0,1,1.22-.13l.87.2c.42.09.7.33.7.59v1.66c0,.43.6.77,1.34.77h4.66c.74,0,1.33-.35,1.33-.78v-1.64c0-.27.3-.51.74-.6l.79-.19a1.71,1.71,0,0,1,1.27.12l2,1.16a2.1,2.1,0,0,0,1.89,0l3.29-1.9a.58.58,0,0,0,0-1.09l-2-1.17c-.32-.18-.41-.46-.23-.7C200.83,260.41,201.14,259.93,201.15,259.9Zm-18.53-2.79c.77-2.37,5-3.7,8.87-2.85,2.92.64,4.69,2.46,4.11,4.22-.77,2.37-5,3.71-8.87,2.86C183.81,260.69,182,258.88,182.62,257.11Z" transform="translate(-161.3 -29)"/><path class="cls-62" d="M415.5,274c4.83-2.79,12.74-2.79,17.57,0s4.83,7.35,0,10.14-12.74,2.79-17.57,0S410.67,276.76,415.5,274Z" transform="translate(-161.3 -29)"/><path class="cls-3" d="M436.28,274.82c0-.25-.36-.46-.8-.46h-1.71c-.28,0-.75.3-.83.21s-.07-.32.13-.44l1.21-.69c.31-.18-1.68-.1-2-.28l0-1.51a1.27,1.27,0,0,0-1.14,0l-1.22.7a1.06,1.06,0,0,1-.73.08l-.52-.12c-.26-.06-.42-.2-.42-.35v-1c0-.25-.36-.46-.8-.46h-2.79c-.45,0-.81.21-.81.46v1c0,.16-.18.3-.44.36a4.05,4.05,0,0,0-.5.12,1.08,1.08,0,0,1-.76-.08l-1.22-.69a1.25,1.25,0,0,0-1.13,0l-.14,1.64c-.32.18-2.14,0-1.82.15l1.22.7c.19.11.25.28.14.42s-.55-.19-.82-.19h-1.73c-.45,0-.81.21-.8.46v2.35c0,.25.36.46.81.46h1l0,1.93a.17.17,0,0,0,0,.1h0a.37.37,0,0,0,.22.28l2,1.14a1.26,1.26,0,0,0,.7.12h0a.9.9,0,0,0,.41-.12l1.22-.7a1.06,1.06,0,0,1,.73-.08l.53.12c.25.06.42.2.42.36v1c0,.26.36.46.8.46h2.79c.45,0,.81-.21.8-.46v-1c0-.16.18-.3.45-.36l.47-.11a1,1,0,0,1,.76.07l1.22.7a1,1,0,0,0,.41.11v0h0a1.24,1.24,0,0,0,.7-.13l2-1.13a.43.43,0,0,0,.22-.27h0v-.07l0-2h1c.45,0,.81-.21.81-.46Zm-6.31,2c-.46,1.42-3,2.22-5.32,1.71-1.74-.39-2.8-1.47-2.46-2.53.47-1.42,3-2.22,5.32-1.71C429.25,274.64,430.32,275.72,430,276.78Z" transform="translate(-161.3 -29)"/><path class="cls-3" d="M434.52,272.15V270.9h-1.81l-.4-.24a1.27,1.27,0,0,0-1.14,0l-.4.24h-2.49V270c0-.26-.36-.47-.8-.47h-2.79c-.45,0-.81.21-.81.47v.92h-2.53l-.39-.23a1.25,1.25,0,0,0-1.13,0l-.38.22h-1.82v1.23a.4.4,0,0,0,.24.34l1.22.7,14,0,1.21-.7a.41.41,0,0,0,.23-.3Z" transform="translate(-161.3 -29)"/><path class="cls-55" d="M433.3,275.41h2.18c.45,0,.81-.2.81-.46v-1.6c0-.26-.36-.47-.8-.47h-1.71a.78.78,0,0,1-.63-.26,2.61,2.61,0,0,0-.19-.27.28.28,0,0,1,.12-.44l1.21-.7a.34.34,0,0,0,0-.65l-2-1.14a1.27,1.27,0,0,0-1.14,0l-1.22.71a1.06,1.06,0,0,1-.73.08l-.52-.13c-.26,0-.42-.19-.42-.35v-1c0-.25-.36-.46-.8-.46h-2.79c-.45,0-.81.21-.81.46v1c0,.16-.18.3-.44.36l-.5.12a1.08,1.08,0,0,1-.76-.07l-1.22-.7a1.25,1.25,0,0,0-1.13,0l-2,1.14a.35.35,0,0,0,0,.66l1.22.7c.19.11.25.27.14.42s-.15.2-.21.3a.77.77,0,0,1-.61.24h-1.73c-.45,0-.81.21-.8.46V275c0,.26.36.46.81.46h1.71a.75.75,0,0,1,.63.26l.19.27c.12.15.08.32-.12.44l-1.21.69a.35.35,0,0,0,0,.66l2,1.13a1.25,1.25,0,0,0,1.13,0l1.22-.71a1.06,1.06,0,0,1,.73-.08l.53.13c.25,0,.42.19.42.35v1c0,.26.36.47.8.47h2.79c.45,0,.81-.2.8-.46v-1c0-.17.18-.31.45-.37l.47-.11a1.08,1.08,0,0,1,.76.07l1.22.7a1.25,1.25,0,0,0,1.13,0l2-1.14a.34.34,0,0,0,0-.65l-1.22-.7c-.19-.11-.25-.28-.14-.42S433.29,275.43,433.3,275.41Zm-11.11-1.67c.47-1.42,3-2.22,5.32-1.71,1.74.39,2.81,1.48,2.46,2.53-.46,1.42-3,2.22-5.32,1.71C422.91,275.89,421.85,274.8,422.19,273.74Z" transform="translate(-161.3 -29)"/><ellipse class="cls-63" cx="229.3" cy="252.44" rx="16.59" ry="9.58"/><path class="cls-53" d="M406.63,275.81c0-.34-.48-.62-1.07-.62h-2.29c-.38,0-1,.4-1.1.28s-.1-.43.17-.58L404,274c.42-.24-2.24-.13-2.66-.37l0-2a1.69,1.69,0,0,0-1.52,0l-1.63.94a1.38,1.38,0,0,1-1,.1l-.7-.16c-.34-.08-.56-.26-.56-.47v-1.33c0-.34-.48-.62-1.07-.62h-3.73c-.59,0-1.07.28-1.07.62V272c0,.22-.25.41-.6.48l-.67.16a1.39,1.39,0,0,1-1-.09l-1.63-.93a1.67,1.67,0,0,0-1.51,0l-.19,2.2c-.42.24-2.86,0-2.44.2l1.64.93c.26.15.33.37.19.56s-.74-.26-1.11-.26h-2.31c-.59,0-1.07.27-1.07.61V279c0,.34.49.61,1.08.61h1.34l0,2.59a.29.29,0,0,0,0,.13h0a.56.56,0,0,0,.3.38l2.64,1.51a1.64,1.64,0,0,0,.94.16h0a1.66,1.66,0,0,0,.56-.16l1.62-.94a1.41,1.41,0,0,1,1-.11l.7.16c.34.08.56.27.56.48v1.33c0,.34.48.61,1.07.61h3.73c.59,0,1.07-.28,1.07-.62v-1.32c0-.21.25-.4.6-.48l.63-.15a1.41,1.41,0,0,1,1,.1l1.62.93a1.45,1.45,0,0,0,.56.15v0h0a1.61,1.61,0,0,0,.93-.17l2.63-1.51a.6.6,0,0,0,.3-.36h0v-.08l0-2.65h1.32c.59,0,1.07-.28,1.07-.62Zm-8.43,2.61c-.62,1.9-4,3-7.11,2.29-2.33-.52-3.75-2-3.29-3.38.62-1.9,4-3,7.11-2.29C397.24,275.56,398.66,277,398.2,278.42Z" transform="translate(-161.3 -29)"/><path class="cls-53" d="M404.28,272.24v-1.68h-2.41l-.54-.31a1.69,1.69,0,0,0-1.52,0l-.53.31h-3.33v-1.23c0-.34-.48-.62-1.07-.62h-3.73c-.59,0-1.07.28-1.07.62v1.23h-3.39l-.52-.3a1.67,1.67,0,0,0-1.51,0l-.51.29h-2.43v1.65a.53.53,0,0,0,.31.45l1.64.94,18.68,0,1.62-.93a.52.52,0,0,0,.3-.4Z" transform="translate(-161.3 -29)"/><path class="cls-11" d="M402.64,276.6h2.93c.59,0,1.07-.28,1.07-.62v-2.15c0-.34-.48-.61-1.07-.61h-2.29a1,1,0,0,1-.83-.35c-.09-.12-.17-.24-.27-.36s-.1-.43.17-.58L404,271a.46.46,0,0,0,0-.87l-2.64-1.51a1.63,1.63,0,0,0-1.52,0l-1.63.93a1.38,1.38,0,0,1-1,.11l-.7-.16c-.34-.08-.56-.27-.56-.48v-1.33c0-.34-.48-.61-1.07-.61h-3.73c-.59,0-1.07.27-1.07.61V269c0,.22-.25.41-.6.48l-.67.16a1.44,1.44,0,0,1-1-.09l-1.63-.93a1.67,1.67,0,0,0-1.51,0L382,270.14a.46.46,0,0,0,0,.87l1.64.94c.26.15.33.37.19.56l-.28.4a1,1,0,0,1-.83.33h-2.31c-.59,0-1.07.28-1.07.62V276c0,.35.49.62,1.08.62h2.29a1,1,0,0,1,.83.34c.09.12.17.24.27.36s.1.43-.17.59l-1.61.93a.46.46,0,0,0,0,.87l2.64,1.52a1.69,1.69,0,0,0,1.52,0l1.62-.94a1.41,1.41,0,0,1,1-.11l.7.16c.34.08.56.26.56.47v1.33c0,.34.48.62,1.07.62h3.73c.59,0,1.07-.28,1.07-.62v-1.32c0-.22.25-.4.6-.48l.63-.15a1.46,1.46,0,0,1,1,.09l1.62.93a1.69,1.69,0,0,0,1.52,0l2.63-1.52a.46.46,0,0,0,0-.87l-1.63-.94c-.26-.14-.33-.36-.19-.56S402.63,276.62,402.64,276.6Zm-14.84-2.23c.62-1.9,4-3,7.11-2.29,2.33.52,3.75,2,3.29,3.38-.62,1.9-4,3-7.11,2.29C388.76,277.23,387.34,275.78,387.8,274.37Z" transform="translate(-161.3 -29)"/></g></g><g id="Text"><path class="cls-3" d="M315.09,278.5a1.89,1.89,0,0,0,.55-.28.79.79,0,0,0,.27-.33.21.21,0,0,0-.09-.27c-.17-.11-.53-.07-1.07.13l0-.67a4.22,4.22,0,0,1,1.13-.27,1.26,1.26,0,0,1,.82.2.6.6,0,0,1,.27.68,1.66,1.66,0,0,1-.69.91,3.44,3.44,0,0,1-.75.42,7.76,7.76,0,0,1-1.18.34l-1.3.3,1.08.71-.86.66-1.93-1.27.71-.54,2.1-.47C314.54,278.65,314.86,278.57,315.09,278.5Z" transform="translate(-161.3 -29)"/><path class="cls-3" d="M319.74,279.16l-.83.63-1.08-.7-.72.55a1.17,1.17,0,0,1,.33.14.68.68,0,0,1,.31.73,1.82,1.82,0,0,1-.73,1,3,3,0,0,1-1.35.61,1.53,1.53,0,0,1-1.15-.15.84.84,0,0,1-.28-1.11l1-.33c0,.05,0,.1,0,.17a1.47,1.47,0,0,0,0,.3.43.43,0,0,0,.18.31.65.65,0,0,0,.43.07,1.23,1.23,0,0,0,.56-.26.74.74,0,0,0,.32-.43.36.36,0,0,0-.19-.34,1.33,1.33,0,0,0-.71-.14l.17-.49,2.11-1.62Z" transform="translate(-161.3 -29)"/><path class="cls-3" d="M323,281.29l-6.27,2-.67-.44,6.27-2ZM319.54,284a2,2,0,0,1-.77.36.86.86,0,0,1-.67-.08.39.39,0,0,1-.16-.46,1.18,1.18,0,0,1,.45-.58,1.74,1.74,0,0,1,.78-.36.86.86,0,0,1,.67.07.39.39,0,0,1,.16.47A1.19,1.19,0,0,1,319.54,284Zm-.91-.29a.12.12,0,0,0,0,.14.23.23,0,0,0,.2,0,.67.67,0,0,0,.27-.13.56.56,0,0,0,.18-.21.1.1,0,0,0,0-.14.26.26,0,0,0-.2,0,.87.87,0,0,0-.27.14A.53.53,0,0,0,318.63,283.71Zm1.89-2.66a1.89,1.89,0,0,1-.77.37.91.91,0,0,1-.67-.08.39.39,0,0,1-.16-.47,1.23,1.23,0,0,1,.45-.58,2,2,0,0,1,.78-.36.86.86,0,0,1,.67.08.38.38,0,0,1,.16.46A1.15,1.15,0,0,1,320.52,281.05Zm-.91-.28a.1.1,0,0,0,0,.14.27.27,0,0,0,.2,0,.7.7,0,0,0,.27-.14.63.63,0,0,0,.18-.2q0-.1,0-.15a.23.23,0,0,0-.2,0,.74.74,0,0,0-.28.14A.58.58,0,0,0,319.61,280.77Z" transform="translate(-161.3 -29)"/><path class="cls-3" d="M313.71,294.93l-.83.64-1.08-.71-.72.55a1.17,1.17,0,0,1,.33.14.65.65,0,0,1,.3.74,1.76,1.76,0,0,1-.72,1,3.17,3.17,0,0,1-1.35.62,1.57,1.57,0,0,1-1.15-.16.84.84,0,0,1-.28-1.11l1-.33c0,.05,0,.1,0,.17a1.05,1.05,0,0,0,0,.3.37.37,0,0,0,.18.31.6.6,0,0,0,.42.07,1.13,1.13,0,0,0,.56-.26.74.74,0,0,0,.32-.43.36.36,0,0,0-.19-.34,1.35,1.35,0,0,0-.71-.13l.18-.5,2.1-1.61Z" transform="translate(-161.3 -29)"/><path class="cls-3" d="M313.76,297.35a2,2,0,0,0,.55-.28.79.79,0,0,0,.27-.33.21.21,0,0,0-.09-.27c-.17-.11-.53-.07-1.07.13l0-.67a4.22,4.22,0,0,1,1.13-.27,1.26,1.26,0,0,1,.82.2.6.6,0,0,1,.27.68,1.65,1.65,0,0,1-.69.91,3.22,3.22,0,0,1-.75.42,9.13,9.13,0,0,1-1.18.34l-1.3.3,1.08.7-.86.67L310,298.61l.72-.55,2.09-.46C313.21,297.5,313.54,297.42,313.76,297.35Z" transform="translate(-161.3 -29)"/><path class="cls-3" d="M319.34,298.61l-6.27,2-.67-.44,6.27-2Zm-3.46,2.71a1.87,1.87,0,0,1-.77.36.86.86,0,0,1-.67-.08.37.37,0,0,1-.16-.46,1.23,1.23,0,0,1,.45-.58,2,2,0,0,1,.78-.36.91.91,0,0,1,.67.07.4.4,0,0,1,.16.47A1.19,1.19,0,0,1,315.88,301.32ZM315,301a.11.11,0,0,0,0,.14.23.23,0,0,0,.2,0,.67.67,0,0,0,.27-.13.56.56,0,0,0,.18-.21c0-.06,0-.11,0-.14a.26.26,0,0,0-.2,0,1,1,0,0,0-.28.14A.58.58,0,0,0,315,301Zm1.89-2.65a2,2,0,0,1-.77.36.91.91,0,0,1-.67-.08.38.38,0,0,1-.16-.46,1.14,1.14,0,0,1,.45-.58,1.87,1.87,0,0,1,.78-.37.87.87,0,0,1,.66.08.38.38,0,0,1,.17.46A1.17,1.17,0,0,1,316.86,298.38Zm-.91-.29a.1.1,0,0,0,0,.14.26.26,0,0,0,.2,0,.7.7,0,0,0,.27-.14.54.54,0,0,0,.18-.2c0-.07,0-.11,0-.14s-.11,0-.21,0a.7.7,0,0,0-.27.14A.49.49,0,0,0,316,298.09Z" transform="translate(-161.3 -29)"/><path class="cls-3" d="M277.08,285.32l1.38-1.06,2,1.29-.73.56-4.69,2-.66-.43,4.54-2-.69-.45-.56.42Z" transform="translate(-161.3 -29)"/><path class="cls-3" d="M282.53,286.92l-.84.63-1.08-.7-.72.55a1.11,1.11,0,0,1,.34.14.67.67,0,0,1,.3.74,1.73,1.73,0,0,1-.73,1,3.07,3.07,0,0,1-1.35.62,1.55,1.55,0,0,1-1.14-.16.83.83,0,0,1-.28-1.11l1-.33c0,.05,0,.1,0,.17a1,1,0,0,0,0,.3.43.43,0,0,0,.18.31.65.65,0,0,0,.43.07,1.17,1.17,0,0,0,.56-.26.72.72,0,0,0,.31-.43.34.34,0,0,0-.18-.34,1.39,1.39,0,0,0-.71-.13l.17-.5,2.1-1.62Z" transform="translate(-161.3 -29)"/><path class="cls-3" d="M285.79,289.05l-6.27,2-.68-.44,6.28-2Zm-3.46,2.71a1.85,1.85,0,0,1-.78.36.84.84,0,0,1-.66-.08.37.37,0,0,1-.16-.46,1.18,1.18,0,0,1,.45-.58,2,2,0,0,1,.78-.36.88.88,0,0,1,.66.07.38.38,0,0,1,.16.47A1.23,1.23,0,0,1,282.33,291.76Zm-.91-.29a.1.1,0,0,0,0,.14.22.22,0,0,0,.2,0,.67.67,0,0,0,.27-.13.45.45,0,0,0,.17-.21.1.1,0,0,0,0-.14.29.29,0,0,0-.21,0,1.16,1.16,0,0,0-.27.14A.49.49,0,0,0,281.42,291.47Zm1.89-2.66a1.87,1.87,0,0,1-.78.37.89.89,0,0,1-.66-.08.38.38,0,0,1-.16-.47,1.16,1.16,0,0,1,.45-.57,1.87,1.87,0,0,1,.78-.37.84.84,0,0,1,.66.08.37.37,0,0,1,.16.46A1.18,1.18,0,0,1,283.31,288.81Zm-.91-.28a.1.1,0,0,0,0,.14.26.26,0,0,0,.2,0,.78.78,0,0,0,.27-.14.5.5,0,0,0,.17-.2c0-.07,0-.12,0-.14a.25.25,0,0,0-.21,0,.7.7,0,0,0-.27.14A.49.49,0,0,0,282.4,288.53Z" transform="translate(-161.3 -29)"/><path class="cls-3" d="M275.52,272.4a.81.81,0,0,0-.66-.06,3.42,3.42,0,0,0-.9.45,1.28,1.28,0,0,1,.8.16.59.59,0,0,1,.24.72,2.09,2.09,0,0,1-.79,1,3.05,3.05,0,0,1-1.33.63,1.48,1.48,0,0,1-1.09-.15.7.7,0,0,1-.33-.46.94.94,0,0,1,.16-.6,5.13,5.13,0,0,1,1.3-1.32,7.24,7.24,0,0,1,1.13-.74,3.87,3.87,0,0,1,1-.38,1.64,1.64,0,0,1,1.29.11.82.82,0,0,1,.28.31.88.88,0,0,1,.08.31c0,.09,0,.2,0,.32l-1,.33a1,1,0,0,0,0-.12.75.75,0,0,0,0-.24A.35.35,0,0,0,275.52,272.4Zm-1.63,1.14a.63.63,0,0,0-.48-.07,1.22,1.22,0,0,0-.56.25,1,1,0,0,0-.35.44.26.26,0,0,0,.1.34.58.58,0,0,0,.46.06,1.36,1.36,0,0,0,.57-.27,1.12,1.12,0,0,0,.36-.42A.25.25,0,0,0,273.89,273.54Z" transform="translate(-161.3 -29)"/><path class="cls-3" d="M276.13,273.72l1.38-1.05,2,1.29-.73.56-4.69,2-.66-.43,4.54-2-.69-.45-.56.43Z" transform="translate(-161.3 -29)"/><path class="cls-3" d="M282.5,275.93l-6.27,2-.67-.45,6.27-2Zm-3.45,2.71a1.84,1.84,0,0,1-.78.36.83.83,0,0,1-.66-.08.36.36,0,0,1-.16-.46,1.14,1.14,0,0,1,.44-.58,2,2,0,0,1,.78-.36.86.86,0,0,1,.67.08.37.37,0,0,1,.16.46A1.23,1.23,0,0,1,279.05,278.64Zm-.92-.29c0,.07,0,.11,0,.14a.28.28,0,0,0,.21,0,1,1,0,0,0,.26-.14.63.63,0,0,0,.18-.2q0-.1,0-.15a.26.26,0,0,0-.2,0,.91.91,0,0,0-.27.15A.62.62,0,0,0,278.13,278.35Zm1.9-2.65a2.12,2.12,0,0,1-.78.36.86.86,0,0,1-.67-.08.37.37,0,0,1-.15-.46,1.1,1.1,0,0,1,.44-.58,1.93,1.93,0,0,1,.78-.37.91.91,0,0,1,.67.08.39.39,0,0,1,.16.47A1.23,1.23,0,0,1,280,275.7Zm-.92-.29a.12.12,0,0,0,0,.14.29.29,0,0,0,.21,0,.74.74,0,0,0,.26-.14.54.54,0,0,0,.18-.2c0-.07,0-.11,0-.14a.22.22,0,0,0-.2,0,.7.7,0,0,0-.27.14A.63.63,0,0,0,279.11,275.41Z" transform="translate(-161.3 -29)"/><path class="cls-3" d="M278.4,254.74l1.11.72-4.31,3.31-.59-.38,3.49-2.68-.52-.34Z" transform="translate(-161.3 -29)"/><path class="cls-3" d="M277.4,259.11a.77.77,0,0,0,.66.05,3.42,3.42,0,0,0,.9-.45,1.22,1.22,0,0,1-.8-.15.57.57,0,0,1-.24-.72,2,2,0,0,1,.79-1,3.15,3.15,0,0,1,1.33-.62,1.39,1.39,0,0,1,1.09.15.68.68,0,0,1,.33.46,1,1,0,0,1-.16.6,5.13,5.13,0,0,1-1.3,1.32,8,8,0,0,1-1.13.74,4.25,4.25,0,0,1-.95.38,1.7,1.7,0,0,1-1.3-.12.7.7,0,0,1-.28-.31.57.57,0,0,1-.08-.31,1.17,1.17,0,0,1,0-.31l1-.32a.74.74,0,0,1,0,.12.68.68,0,0,0,0,.23A.36.36,0,0,0,277.4,259.11ZM279,258a.65.65,0,0,0,.47.07,1.33,1.33,0,0,0,.56-.25,1,1,0,0,0,.35-.44.26.26,0,0,0-.1-.34.57.57,0,0,0-.46-.06,1.38,1.38,0,0,0-.56.27,1.12,1.12,0,0,0-.36.42A.24.24,0,0,0,279,258Z" transform="translate(-161.3 -29)"/><path class="cls-3" d="M285.23,259.21l-6.27,2-.68-.44,6.28-2Zm-3.46,2.71a2,2,0,0,1-.78.36.89.89,0,0,1-.66-.08.38.38,0,0,1-.16-.46,1.18,1.18,0,0,1,.45-.58,1.87,1.87,0,0,1,.78-.37.87.87,0,0,1,.66.08.37.37,0,0,1,.16.46A1.2,1.2,0,0,1,281.77,261.92Zm-.91-.29a.1.1,0,0,0,0,.14.26.26,0,0,0,.2,0,.7.7,0,0,0,.27-.14.45.45,0,0,0,.17-.2.1.1,0,0,0,0-.14.25.25,0,0,0-.21,0,.87.87,0,0,0-.27.14A.49.49,0,0,0,280.86,261.63Zm1.89-2.66a1.74,1.74,0,0,1-.78.36.84.84,0,0,1-.66-.07.38.38,0,0,1-.16-.47,1.23,1.23,0,0,1,.45-.58,2,2,0,0,1,.78-.36.84.84,0,0,1,.66.08.37.37,0,0,1,.16.46A1.18,1.18,0,0,1,282.75,259Zm-.91-.28c0,.06,0,.1,0,.13a.22.22,0,0,0,.2,0,.67.67,0,0,0,.26-.14.63.63,0,0,0,.18-.2c0-.07,0-.12,0-.15a.25.25,0,0,0-.21,0,.7.7,0,0,0-.27.14A.43.43,0,0,0,281.84,258.69Z" transform="translate(-161.3 -29)"/><path class="cls-3" d="M238.76,262.06l1.38-1.06,2,1.29-.73.56-4.69,2-.66-.43,4.54-2-.69-.46-.56.43Z" transform="translate(-161.3 -29)"/><path class="cls-3" d="M241.92,264.55a1.67,1.67,0,0,0,.55-.28.66.66,0,0,0,.27-.33.2.2,0,0,0-.08-.26c-.18-.12-.53-.08-1.07.12l0-.67a4.31,4.31,0,0,1,1.13-.27,1.29,1.29,0,0,1,.83.2.62.62,0,0,1,.27.68,1.64,1.64,0,0,1-.7.91,3,3,0,0,1-.75.42,8.46,8.46,0,0,1-1.17.34l-1.3.3,1.08.71-.87.66-1.93-1.26.72-.55,2.1-.47C241.38,264.71,241.7,264.62,241.92,264.55Z" transform="translate(-161.3 -29)"/><path class="cls-3" d="M247.5,265.81l-6.27,2-.67-.44,6.27-2Zm-3.45,2.71a1.84,1.84,0,0,1-.78.36.86.86,0,0,1-.67-.08.38.38,0,0,1-.16-.46,1.23,1.23,0,0,1,.45-.58,2,2,0,0,1,.78-.36.86.86,0,0,1,.67.08.37.37,0,0,1,.16.46A1.23,1.23,0,0,1,244.05,268.52Zm-.92-.29c0,.07,0,.11,0,.14a.26.26,0,0,0,.2,0,.87.87,0,0,0,.27-.14.63.63,0,0,0,.18-.2q0-.1,0-.15a.26.26,0,0,0-.2,0,.91.91,0,0,0-.27.15A.62.62,0,0,0,243.13,268.23Zm1.9-2.65a2.12,2.12,0,0,1-.78.36.86.86,0,0,1-.67-.08.39.39,0,0,1-.16-.46,1.18,1.18,0,0,1,.45-.58,1.74,1.74,0,0,1,.78-.36.86.86,0,0,1,.67.07.39.39,0,0,1,.16.47A1.23,1.23,0,0,1,245,265.58Zm-.92-.29a.12.12,0,0,0,0,.14.27.27,0,0,0,.2,0,.7.7,0,0,0,.27-.14.48.48,0,0,0,.18-.2.1.1,0,0,0,0-.14.22.22,0,0,0-.2,0,.87.87,0,0,0-.27.14A.53.53,0,0,0,244.11,265.29Z" transform="translate(-161.3 -29)"/><path class="cls-3" d="M252,240.58a2,2,0,0,0,.55-.28.75.75,0,0,0,.27-.34.2.2,0,0,0-.08-.26c-.18-.11-.53-.07-1.07.13l0-.67a4.22,4.22,0,0,1,1.13-.27,1.29,1.29,0,0,1,.83.19.62.62,0,0,1,.26.68,1.63,1.63,0,0,1-.69.92,3,3,0,0,1-.75.42,8.67,8.67,0,0,1-1.18.34l-1.3.29,1.08.71-.86.66-1.93-1.26.72-.55,2.09-.47C251.43,240.73,251.76,240.65,252,240.58Z" transform="translate(-161.3 -29)"/><path class="cls-3" d="M254.77,240l1.11.73-4.31,3.31-.59-.39,3.49-2.68-.52-.34Z" transform="translate(-161.3 -29)"/><path class="cls-3" d="M259.14,242.87l-6.27,2-.68-.44,6.28-2Zm-3.46,2.71a1.74,1.74,0,0,1-.78.36.84.84,0,0,1-.66-.08.37.37,0,0,1-.16-.46,1.23,1.23,0,0,1,.45-.58,2,2,0,0,1,.78-.36.88.88,0,0,1,.66.07.38.38,0,0,1,.16.47A1.17,1.17,0,0,1,255.68,245.58Zm-.91-.29c0,.07,0,.11,0,.14a.26.26,0,0,0,.2,0,.87.87,0,0,0,.27-.14.56.56,0,0,0,.18-.21.12.12,0,0,0,0-.14.29.29,0,0,0-.21,0,1.16,1.16,0,0,0-.27.14A.49.49,0,0,0,254.77,245.29Zm1.89-2.66a1.87,1.87,0,0,1-.78.37.89.89,0,0,1-.66-.08.37.37,0,0,1-.16-.46,1.14,1.14,0,0,1,.45-.58,1.87,1.87,0,0,1,.78-.37.87.87,0,0,1,.66.08.37.37,0,0,1,.16.46A1.14,1.14,0,0,1,256.66,242.63Zm-.91-.28a.1.1,0,0,0,0,.14.26.26,0,0,0,.2,0,.7.7,0,0,0,.27-.14.43.43,0,0,0,.17-.2c0-.07,0-.11,0-.14a.25.25,0,0,0-.21,0,.7.7,0,0,0-.27.14A.49.49,0,0,0,255.75,242.35Z" transform="translate(-161.3 -29)"/><path class="cls-3" d="M267.47,75l-.11-1.44,2-1.17.06.76-.86,4.38-.68.39.81-4.25-.7.41,0,.58Z" transform="translate(-161.3 -29)"/><path class="cls-3" d="M270.94,74.16l-.06-.78.6-.35.06.79.32-.19.06.87-.31.18.07,1.07-.6.35L271,75l-1.13.65-.05-.76.8-3.23.68-.39-.76,3.09Z" transform="translate(-161.3 -29)"/><path class="cls-3" d="M273.35,71.17a1.56,1.56,0,0,1-.12.74,1,1,0,0,1-.41.5.35.35,0,0,1-.44,0,.79.79,0,0,1-.21-.54,1.54,1.54,0,0,1,.12-.73,1,1,0,0,1,.4-.51.34.34,0,0,1,.44,0A.75.75,0,0,1,273.35,71.17Zm1.46-1.9-1.68,5.64-.68.4,1.67-5.64Zm-2.15,2.54a.08.08,0,0,0,.12,0,.24.24,0,0,0,.11-.16.51.51,0,0,0,0-.25.31.31,0,0,0-.06-.21.09.09,0,0,0-.13,0,.3.3,0,0,0-.11.16.74.74,0,0,0,0,.26A.34.34,0,0,0,272.66,71.81Zm2.45,1.08a1.54,1.54,0,0,1-.12.73,1,1,0,0,1-.4.51.36.36,0,0,1-.44,0,.75.75,0,0,1-.22-.54,1.73,1.73,0,0,1,.13-.74,1,1,0,0,1,.4-.51.36.36,0,0,1,.44,0A.8.8,0,0,1,275.11,72.89Zm-.69.64a.08.08,0,0,0,.12,0,.27.27,0,0,0,.12-.15.55.55,0,0,0,0-.26.34.34,0,0,0-.07-.2.08.08,0,0,0-.12,0,.29.29,0,0,0-.11.16.57.57,0,0,0,0,.26A.44.44,0,0,0,274.42,73.53Z" transform="translate(-161.3 -29)"/><path class="cls-4" d="M253.62,106.64l-.07-.85,1.71-1,.06.69-.5,1.37a.49.49,0,0,1,.55.16,1.32,1.32,0,0,1,.25.73,2.57,2.57,0,0,1-.22,1.28,1.84,1.84,0,0,1-.73.84,1,1,0,0,1-1,0l.2-.94a.73.73,0,0,0,.74,0,.85.85,0,0,0,.3-.32,1,1,0,0,0,.09-.5.39.39,0,0,0-.17-.36.39.39,0,0,0-.4.06,1.84,1.84,0,0,0-.37.33l-.05-.73.46-1.33Z" transform="translate(-161.3 -29)"/><path class="cls-4" d="M255.74,104.52l1.13-.65.33,4.48-.6.35-.27-3.63-.53.3Z" transform="translate(-161.3 -29)"/><path class="cls-4" d="M258.74,103.84a1.7,1.7,0,0,1-.13.74.94.94,0,0,1-.4.5.34.34,0,0,1-.44,0,.79.79,0,0,1-.21-.55,1.54,1.54,0,0,1,.12-.73,1,1,0,0,1,.4-.51.34.34,0,0,1,.44,0A.75.75,0,0,1,258.74,103.84Zm1.46-1.9-1.68,5.65-.69.39,1.68-5.64ZM258,104.48a.09.09,0,0,0,.13,0,.37.37,0,0,0,.11-.15.57.57,0,0,0,0-.26.53.53,0,0,0-.06-.21.09.09,0,0,0-.13,0,.34.34,0,0,0-.11.16.57.57,0,0,0,0,.26A.39.39,0,0,0,258,104.48Zm2.46,1.08a1.52,1.52,0,0,1-.12.73,1,1,0,0,1-.4.51.34.34,0,0,1-.44,0,.75.75,0,0,1-.22-.54,1.58,1.58,0,0,1,.12-.74,1,1,0,0,1,.41-.51.36.36,0,0,1,.44,0A.82.82,0,0,1,260.5,105.56Zm-.69.64s.07,0,.12,0a.27.27,0,0,0,.12-.15,1,1,0,0,0,0-.26.34.34,0,0,0-.07-.2.08.08,0,0,0-.12,0,.24.24,0,0,0-.11.16.59.59,0,0,0,0,.27A.28.28,0,0,0,259.81,106.2Z" transform="translate(-161.3 -29)"/><path class="cls-4" d="M240.2,96.92l.07.87-1.11.63.06.76a1.27,1.27,0,0,1,.28-.23.63.63,0,0,1,.72,0,1.14,1.14,0,0,1,.37.89,2.63,2.63,0,0,1-.22,1.27,1.82,1.82,0,0,1-.72.87.73.73,0,0,1-1-.13l.27-.92.11.08a.55.55,0,0,0,.24.1.4.4,0,0,0,.32,0,.75.75,0,0,0,.28-.32,1.08,1.08,0,0,0,.09-.52c0-.2-.07-.33-.17-.39a.34.34,0,0,0-.36,0,1.7,1.7,0,0,0-.47.53l-.29-.3-.16-2.18Z" transform="translate(-161.3 -29)"/><path class="cls-4" d="M241.17,96.62a1.7,1.7,0,0,1,.67-.75.64.64,0,0,1,.71-.05.86.86,0,0,1,.34.71,2.07,2.07,0,0,1-.18,1,1.12,1.12,0,0,1,.43.93,2.31,2.31,0,0,1-.22,1.17,1.94,1.94,0,0,1-.74.85.71.71,0,0,1-.8,0,1,1,0,0,1-.37-.82,2.45,2.45,0,0,1,.26-1.33,1,1,0,0,1-.31-.75A1.91,1.91,0,0,1,241.17,96.62Zm.53,1.1a.24.24,0,0,0,.27,0,.68.68,0,0,0,.26-.31,1,1,0,0,0,.08-.45.42.42,0,0,0-.14-.32.24.24,0,0,0-.28,0,.73.73,0,0,0-.25.31.91.91,0,0,0-.09.45A.39.39,0,0,0,241.7,97.72Zm.1,2a.29.29,0,0,0,.31,0,.85.85,0,0,0,.3-.32,1,1,0,0,0,.11-.52c0-.2-.07-.32-.17-.37a.31.31,0,0,0-.32,0,.7.7,0,0,0-.3.33.9.9,0,0,0-.1.52A.39.39,0,0,0,241.8,99.7Z" transform="translate(-161.3 -29)"/><path class="cls-4" d="M244.64,95.41a1.7,1.7,0,0,1-.13.74,1,1,0,0,1-.4.5.34.34,0,0,1-.44,0,.75.75,0,0,1-.21-.54,1.54,1.54,0,0,1,.12-.73,1,1,0,0,1,.4-.51.34.34,0,0,1,.44,0A.75.75,0,0,1,244.64,95.41Zm1.46-1.9-1.68,5.64-.69.4,1.68-5.64Zm-2.16,2.54a.09.09,0,0,0,.13,0,.34.34,0,0,0,.11-.16.51.51,0,0,0,0-.25.37.37,0,0,0-.06-.21.09.09,0,0,0-.13,0,.3.3,0,0,0-.11.16.57.57,0,0,0,0,.26A.43.43,0,0,0,243.94,96.05Zm2.46,1.08a1.54,1.54,0,0,1-.12.73,1,1,0,0,1-.4.51.36.36,0,0,1-.44,0,.75.75,0,0,1-.22-.54,1.56,1.56,0,0,1,.12-.74,1,1,0,0,1,.41-.51.35.35,0,0,1,.44,0A.8.8,0,0,1,246.4,97.13Zm-.69.64s.07,0,.12,0a.27.27,0,0,0,.12-.15,1,1,0,0,0,0-.26.34.34,0,0,0-.07-.2.08.08,0,0,0-.12,0,.24.24,0,0,0-.11.16.57.57,0,0,0,0,.26A.29.29,0,0,0,245.71,97.77Z" transform="translate(-161.3 -29)"/><path class="cls-4" d="M335.47,81.15l.14-2.16-1.39-.89.1-1.47,1.39.89.15-2.16,1.09.7-.14,2.15,1.39.89-.1,1.47-1.39-.88-.15,2.16Z" transform="translate(-161.3 -29)"/><path class="cls-4" d="M341.38,81a1.36,1.36,0,0,0,.27-.74,1.8,1.8,0,0,0-.14-.82,1.23,1.23,0,0,0-.45-.58c-.35-.22-.7,0-1.06.5l-.94-1.52A2.09,2.09,0,0,1,340,77a1.42,1.42,0,0,1,1.21.29,3.45,3.45,0,0,1,1.22,1.49,4.43,4.43,0,0,1,.42,2.23,2.45,2.45,0,0,1-.31,1.1,3.91,3.91,0,0,1-.9,1l-1.11.93,2.19,1.4-.11,1.68-3.92-2.49.1-1.4,1.8-1.48A4.74,4.74,0,0,0,341.38,81Z" transform="translate(-161.3 -29)"/><path class="cls-4" d="M347.63,81.52l-.11,1.62-2.19-1.4-.1,1.41a1.53,1.53,0,0,1,.57.25A3.74,3.74,0,0,1,347.13,85a4.47,4.47,0,0,1,.45,2.34,2,2,0,0,1-.74,1.67,1.33,1.33,0,0,1-1.53-.13,4.89,4.89,0,0,1-1.8-2.46l.75-1c0,.1.1.23.17.38a5.18,5.18,0,0,0,.41.69,2.25,2.25,0,0,0,.61.67.61.61,0,0,0,.59.07c.17-.09.27-.32.3-.7a1.86,1.86,0,0,0-.21-1,1.89,1.89,0,0,0-.66-.74,1.42,1.42,0,0,0-1-.17L344,83.48l.28-4.09Z" transform="translate(-161.3 -29)"/><path class="cls-4" d="M351.06,85.18c-.35-.22-.63-.21-.84,0a2.2,2.2,0,0,0-.44,1.2,1.31,1.31,0,0,1,1.13.19,3.41,3.41,0,0,1,1.25,1.6,5.2,5.2,0,0,1,.38,2.37,2.1,2.1,0,0,1-.7,1.69,1.27,1.27,0,0,1-1.46-.13,3.37,3.37,0,0,1-1-1,4.52,4.52,0,0,1-.6-1.38,10,10,0,0,1-.28-3.28,8,8,0,0,1,.32-1.9,2.32,2.32,0,0,1,.61-1,1.27,1.27,0,0,1,1.64,0,3.32,3.32,0,0,1,.73.64,5.39,5.39,0,0,1,.52.7c.12.2.25.45.39.73l-.68.94-.12-.28a4.5,4.5,0,0,0-.34-.54A2.17,2.17,0,0,0,351.06,85.18Zm-.37,2.92a.55.55,0,0,0-.64-.06.81.81,0,0,0-.31.69,2.31,2.31,0,0,0,.18,1.06,1.53,1.53,0,0,0,.57.76.52.52,0,0,0,.61,0,.86.86,0,0,0,.3-.71,2.6,2.6,0,0,0-.15-1A1.49,1.49,0,0,0,350.69,88.1Z" transform="translate(-161.3 -29)"/><path class="cls-3" d="M448.9,152.67a.67.67,0,0,0,.14-.37.85.85,0,0,0-.07-.42.6.6,0,0,0-.23-.3c-.18-.12-.36,0-.55.25l-.48-.78a1.06,1.06,0,0,1,.49-.43.71.71,0,0,1,.62.15,1.77,1.77,0,0,1,.63.77,2.2,2.2,0,0,1,.21,1.14,1.27,1.27,0,0,1-.16.57,2,2,0,0,1-.46.51l-.57.48,1.13.72-.06.86-2-1.28.05-.72.92-.76A2.49,2.49,0,0,0,448.9,152.67Z" transform="translate(-161.3 -29)"/><path class="cls-3" d="M451.16,156.91a2.08,2.08,0,0,1-.84-1.17,5,5,0,0,1-.19-1.81,2.59,2.59,0,0,1,.41-1.43c.22-.28.53-.3.92-.05a2,2,0,0,1,.85,1.17,5,5,0,0,1,.18,1.81,2.68,2.68,0,0,1-.4,1.43C451.86,157.14,451.55,157.16,451.16,156.91Zm-.2-3.54a2.57,2.57,0,0,0-.2,1,4,4,0,0,0,.06,1.13,1,1,0,0,0,.39.66.28.28,0,0,0,.45-.13,2.43,2.43,0,0,0,.21-1,4.42,4.42,0,0,0-.07-1.13,1,1,0,0,0-.39-.66A.28.28,0,0,0,451,153.37Z" transform="translate(-161.3 -29)"/><path class="cls-3" d="M453,153.53l1.15.74-.29,4.3-.61-.39.24-3.49-.55-.34Z" transform="translate(-161.3 -29)"/><path class="cls-3" d="M455.39,158.74c.17.11.32.11.43,0a1.18,1.18,0,0,0,.22-.61.66.66,0,0,1-.58-.1,1.76,1.76,0,0,1-.64-.82,2.62,2.62,0,0,1-.19-1.22,1.11,1.11,0,0,1,.35-.87.66.66,0,0,1,.76.07,1.77,1.77,0,0,1,.51.51,2.39,2.39,0,0,1,.31.71,5.36,5.36,0,0,1,.14,1.68,4,4,0,0,1-.17,1,1.24,1.24,0,0,1-.3.54.68.68,0,0,1-.85,0,2,2,0,0,1-.38-.34,2.08,2.08,0,0,1-.26-.35,3.91,3.91,0,0,1-.2-.37l.36-.48.07.15a3.17,3.17,0,0,0,.17.27A1,1,0,0,0,455.39,158.74Zm.19-1.5a.28.28,0,0,0,.33,0,.44.44,0,0,0,.15-.36,1.14,1.14,0,0,0-.09-.54.79.79,0,0,0-.29-.4.26.26,0,0,0-.31,0,.47.47,0,0,0-.15.37,1.2,1.2,0,0,0,.08.53A.67.67,0,0,0,455.58,157.24Z" transform="translate(-161.3 -29)"/><path class="cls-3" d="M428.21,126.76a.73.73,0,0,0,.14-.38.89.89,0,0,0-.07-.42.55.55,0,0,0-.23-.3c-.18-.11-.36,0-.55.26l-.48-.78a1.06,1.06,0,0,1,.49-.43.73.73,0,0,1,.62.14,1.84,1.84,0,0,1,.63.77,2.23,2.23,0,0,1,.21,1.14,1.36,1.36,0,0,1-.15.57,2,2,0,0,1-.47.51l-.57.48,1.13.72-.06.86-2-1.28.05-.71.92-.76A2.13,2.13,0,0,0,428.21,126.76Z" transform="translate(-161.3 -29)"/><path class="cls-3" d="M430.47,131a2.08,2.08,0,0,1-.84-1.17,5,5,0,0,1-.19-1.81,2.61,2.61,0,0,1,.41-1.43c.22-.28.53-.29.92,0a2,2,0,0,1,.85,1.17,4.75,4.75,0,0,1,.18,1.81,2.62,2.62,0,0,1-.4,1.43C431.17,131.23,430.87,131.24,430.47,131Zm-.2-3.53a2.66,2.66,0,0,0-.2,1,4,4,0,0,0,.06,1.13,1,1,0,0,0,.4.66.27.27,0,0,0,.44-.12,2.54,2.54,0,0,0,.21-1,4,4,0,0,0-.07-1.13,1,1,0,0,0-.39-.66A.28.28,0,0,0,430.27,127.46Z" transform="translate(-161.3 -29)"/><path class="cls-3" d="M432.3,127.61l1.15.74-.29,4.31-.61-.4.24-3.48-.54-.35Z" transform="translate(-161.3 -29)"/><path class="cls-3" d="M434.4,129.2a.73.73,0,0,1,.73.12,1.86,1.86,0,0,1,.68.78,1.94,1.94,0,0,1,.23,1,.87.87,0,0,1-.31.69,2.45,2.45,0,0,1,.28,1.31.89.89,0,0,1-.37.76.74.74,0,0,1-.81-.11,2.08,2.08,0,0,1-.76-.89,2.41,2.41,0,0,1-.24-1.15,1,1,0,0,1,.43-.86,2.24,2.24,0,0,1-.2-1A.74.74,0,0,1,434.4,129.2Zm.18,3.43a1,1,0,0,0,.3.34.37.37,0,0,0,.33.05c.1,0,.15-.14.17-.33a1,1,0,0,0-.11-.51.9.9,0,0,0-.31-.35.32.32,0,0,0-.32-.05c-.1,0-.16.15-.17.33A1,1,0,0,0,434.58,132.63Zm.17-1.86a.78.78,0,0,0,.26.32.27.27,0,0,0,.28,0,.34.34,0,0,0,.14-.3.89.89,0,0,0-.09-.44.7.7,0,0,0-.26-.32.23.23,0,0,0-.28,0,.32.32,0,0,0-.14.29A.89.89,0,0,0,434.75,130.77Z" transform="translate(-161.3 -29)"/><path class="cls-3" d="M405.25,135.71a.7.7,0,0,0,.14-.38.89.89,0,0,0-.07-.42.71.71,0,0,0-.23-.3c-.18-.11-.36,0-.55.26l-.48-.78a1,1,0,0,1,.49-.43.74.74,0,0,1,.62.14,1.82,1.82,0,0,1,.62.77,2.24,2.24,0,0,1,.22,1.14,1.36,1.36,0,0,1-.16.57,2.06,2.06,0,0,1-.46.52l-.57.48L406,138l-.06.87-2-1.29,0-.71.93-.76A2.49,2.49,0,0,0,405.25,135.71Z" transform="translate(-161.3 -29)"/><path class="cls-3" d="M407.51,139.94a2,2,0,0,1-.84-1.17,5,5,0,0,1-.19-1.81,2.71,2.71,0,0,1,.4-1.43c.23-.28.54-.29.93,0a2,2,0,0,1,.84,1.17,5,5,0,0,1,.19,1.81,2.61,2.61,0,0,1-.41,1.43C408.21,140.18,407.9,140.19,407.51,139.94Zm-.2-3.53a2.34,2.34,0,0,0-.2,1,4,4,0,0,0,.06,1.12,1,1,0,0,0,.39.66A.28.28,0,0,0,408,139a2.38,2.38,0,0,0,.2-1,4,4,0,0,0-.06-1.13,1,1,0,0,0-.39-.66A.28.28,0,0,0,407.31,136.41Z" transform="translate(-161.3 -29)"/><path class="cls-3" d="M409.34,136.56l1.15.74-.29,4.31-.61-.39.24-3.49-.55-.35Z" transform="translate(-161.3 -29)"/><path class="cls-3" d="M411,139l.1-1.38L413.1,139l0,.72-1.4,2.85-.69-.45,1.33-2.77-.72-.46,0,.55Z" transform="translate(-161.3 -29)"/><path class="cls-3" d="M387.06,126.76a.66.66,0,0,0,.14-.38.89.89,0,0,0-.07-.42.55.55,0,0,0-.23-.3c-.18-.11-.36,0-.55.26l-.47-.79a1,1,0,0,1,.48-.42.76.76,0,0,1,.63.14,1.9,1.9,0,0,1,.62.77,2.23,2.23,0,0,1,.21,1.14,1.23,1.23,0,0,1-.15.57,2.11,2.11,0,0,1-.47.51l-.57.48,1.13.72-.06.86-2-1.28.05-.71.92-.76A2.13,2.13,0,0,0,387.06,126.76Z" transform="translate(-161.3 -29)"/><path class="cls-3" d="M389.32,131a2.08,2.08,0,0,1-.84-1.17,4.75,4.75,0,0,1-.18-1.81,2.62,2.62,0,0,1,.4-1.43c.22-.28.53-.29.92,0a2,2,0,0,1,.85,1.17,4.75,4.75,0,0,1,.18,1.81,2.62,2.62,0,0,1-.4,1.43C390,131.23,389.72,131.24,389.32,131Zm-.2-3.53a2.66,2.66,0,0,0-.2,1,4,4,0,0,0,.06,1.13,1,1,0,0,0,.4.66.27.27,0,0,0,.44-.12,2.54,2.54,0,0,0,.21-1A3.67,3.67,0,0,0,390,128a1,1,0,0,0-.39-.66A.28.28,0,0,0,389.12,127.46Z" transform="translate(-161.3 -29)"/><path class="cls-3" d="M391.15,127.61l1.16.74-.3,4.3-.61-.39.24-3.48-.54-.35Z" transform="translate(-161.3 -29)"/><path class="cls-3" d="M394.06,130.23c-.18-.12-.32-.11-.43,0a1.26,1.26,0,0,0-.22.62.66.66,0,0,1,.58.1,1.76,1.76,0,0,1,.64.82,2.62,2.62,0,0,1,.19,1.22,1.08,1.08,0,0,1-.36.87.64.64,0,0,1-.75-.07,1.77,1.77,0,0,1-.51-.51,2.39,2.39,0,0,1-.31-.71,5.36,5.36,0,0,1-.14-1.68,4,4,0,0,1,.17-1,1.05,1.05,0,0,1,.31-.54.66.66,0,0,1,.84,0,1.63,1.63,0,0,1,.37.33,2.78,2.78,0,0,1,.27.36c.06.1.13.23.2.37l-.35.49a.73.73,0,0,0-.06-.14,1.54,1.54,0,0,0-.18-.28A.75.75,0,0,0,394.06,130.23Zm-.19,1.5a.29.29,0,0,0-.33,0,.44.44,0,0,0-.15.36,1,1,0,0,0,.09.54.72.72,0,0,0,.29.39.28.28,0,0,0,.32,0,.47.47,0,0,0,.15-.37,1.25,1.25,0,0,0-.08-.54A.73.73,0,0,0,393.87,131.73Z" transform="translate(-161.3 -29)"/></g></g></svg>